<svg viewBox="0 0 398.11 72.23" xmlns="http://www.w3.org/2000/svg" xmlns:xlink="http://www.w3.org/1999/xlink"><clipPath id="a"><path d="m30 6.12 2.95 5.66a.93.93 0 0 1 -.26 1.22l-24.09 16.26a.91.91 0 0 0 -.23 1.21l6.2 10.42a.93.93 0 0 0 1.15.37l28.14-11.92a.92.92 0 0 1 1.14.35l3.69 4.11 6.77-21.68a.92.92 0 0 0 -.66-1.12l-23.8-6.21h-.25a.92.92 0 0 0 -.75 1.33"/></clipPath><clipPath id="b"><path d="m43.51 26-27 14.47a1.07 1.07 0 0 1 -1.3-.38l-4.44-5.9a1 1 0 0 0 -1.8.28l-4.19 26.28a1.14 1.14 0 0 0 .87 1.25l26.35 5.44a.94.94 0 0 0 1-1.44l-4.89-6.7a1 1 0 0 1 .14-1.3l23.48-20.3a1 1 0 0 0 .13-1.31l-7-10a1.13 1.13 0 0 0 -1-.51.85.85 0 0 0 -.38.09"/></clipPath><path d="m59.17 9.21a5.22 5.22 0 0 0 -3.27-2.48l-23.82-6.2a5.34 5.34 0 0 0 -5.88 2.47 5.16 5.16 0 0 0 -.1 5.13l1.53 2.93-21.49 14.57a.59.59 0 0 0 -.18.13 5.27 5.27 0 0 0 -1.36 7l.18.31a6.18 6.18 0 0 0 -.18.77l-4.14 26.16a5.37 5.37 0 0 0 -.08 1 5.54 5.54 0 0 0 4.29 5.3s0 0 26.45 5.43a5.54 5.54 0 0 0 1.29.13 5.3 5.3 0 0 0 4.59-2.81 5.45 5.45 0 0 0 -.24-5.46c-.05-.07-.1-.15-.16-.22l-3-4.15 21-18.17a5.38 5.38 0 0 0 .94-7.1l-1.57-2.23c2.63-8.41 5.74-18.36 5.74-18.38a5.37 5.37 0 0 0 -.54-4.13z" fill="#fff"/><path d="m32.29 72.23a6.18 6.18 0 0 1 -1.29-.13c-26.13-5.39-26.33-5.42-26.39-5.43a5.9 5.9 0 0 1 -4.61-5.59 5.49 5.49 0 0 1 .09-1.08l4.14-26.26q.06-.33.15-.66l-.1-.16a5.66 5.66 0 0 1 1.45-7.46 2.25 2.25 0 0 1 .27-.17l21.14-14.29-1.37-2.67a5.52 5.52 0 0 1 .11-5.49 5.69 5.69 0 0 1 4.77-2.84 6 6 0 0 1 1.52.17l23.83 6.19a5.69 5.69 0 0 1 4 7.08c-.12.43-.87 2.86-5.68 18.22.35.5 1.46 2.06 1.49 2.12a5.72 5.72 0 0 1 -1 7.55l-20.81 17.95 2.82 3.87a1.56 1.56 0 0 1 .12.17 5.84 5.84 0 0 1 .31 5.91 5.67 5.67 0 0 1 -4.86 3zm-27.54-6.3 26.44 5.44a5.67 5.67 0 0 0 1.21.11 4.89 4.89 0 0 0 4.21-2.6 5.07 5.07 0 0 0 -.22-5.09l-.13-.17-3.26-4.46 21.3-18.4a5 5 0 0 0 .87-6.6c-.07-.11-1.24-1.76-1.56-2.22l-.11-.15.06-.18c2.61-8.34 5.58-17.84 5.73-18.35a4.92 4.92 0 0 0 -.47-3.83 4.89 4.89 0 0 0 -3-2.31l-23.82-6.22a4.78 4.78 0 0 0 -1.34-.15 4.93 4.93 0 0 0 -4.13 2.46 4.81 4.81 0 0 0 -.1 4.79l1.68 3.23-21.76 14.71-.15.06a4.92 4.92 0 0 0 -1.28 6.49l.27.45-.05.16a5.8 5.8 0 0 0 -.17.72l-4.14 26.26a4.74 4.74 0 0 0 -.08 1 5.14 5.14 0 0 0 4 4.87z" fill="#e5e5e5"/><path d="m54.8 11-23.8-6.21a.92.92 0 0 0 -1 1.33l2.95 5.66a.93.93 0 0 1 -.26 1.22l-24.09 16.26a.92.92 0 0 0 -.24 1.21l2.05 3.44a.94.94 0 0 0 -1.48.57l-4.15 26.27a1.14 1.14 0 0 0 .87 1.25l26.35 5.44a.94.94 0 0 0 1-1.44l-4.89-6.7a1 1 0 0 1 .14-1.3l23.48-20.3a1 1 0 0 0 .13-1.31l-2.76-3.91 6.36-20.36a.92.92 0 0 0 -.66-1.12z" fill="#197eb2" fill-rule="evenodd"/><path d="m32.94 11.78-2.94-5.66a.92.92 0 0 1 1-1.33l23.8 6.21a.92.92 0 0 1 .66 1.15l-6.77 21.65-3.69-4.11a.92.92 0 0 0 -1.14-.35l-28.14 11.92a.93.93 0 0 1 -1.15-.37l-6.21-10.42a.92.92 0 0 1 .24-1.21l24.09-16.26a.93.93 0 0 0 .25-1.18z" fill="#ecd157" fill-rule="evenodd"/><g clip-path="url(#a)"><path d="m37 3.17a.53.53 0 0 0 -.7.27l-11.59 26-22.14-4.23a.51.51 0 0 0 -.61.42.49.49 0 0 0 .04.37.49.49 0 0 0 .34.22l17.49 3.4-3.9 10.75a.51.51 0 0 0 0 .4.48.48 0 0 0 .29.27.54.54 0 0 0 .68-.31l4-10.89 4.24.79a.22.22 0 0 0 .25-.14l1.75-3.9 13.86 3.68a.5.5 0 0 0 .38 0 .55.55 0 0 0 .27-.33.52.52 0 0 0 -.37-.64l-13.69-3.68 9.68-21.75a.53.53 0 0 0 -.26-.7" fill="#fff"/></g><path d="m15.17 40.1-4.44-5.9a1 1 0 0 0 -1.8.28l-4.15 26.27a1.14 1.14 0 0 0 .87 1.25l26.35 5.44a.94.94 0 0 0 1-1.44l-4.89-6.7a1 1 0 0 1 .14-1.3l23.48-20.3a1 1 0 0 0 .13-1.31l-7-10a1.09 1.09 0 0 0 -1.35-.39l-27 14.47a1.07 1.07 0 0 1 -1.3-.38z" fill="#197eb2" fill-rule="evenodd"/><g clip-path="url(#b)"><path d="m37.53 15.13a.54.54 0 0 0 -.63.44l-5.63 29.86-27.16.67a.57.57 0 0 0 -.38.18.57.57 0 0 0 0 .79.51.51 0 0 0 .39.15l22.24-.46-2.55 21.42a.54.54 0 0 0 .11.41.55.55 0 0 0 .36.22.57.57 0 0 0 .61-.49l2.61-21.61 4.5-.19a.26.26 0 0 0 .23-.2l.85-4.48 14.83.52a.5.5 0 0 0 .37-.13.53.53 0 0 0 .19-.41.56.56 0 0 0 -.52-.58l-14.66-.52 4.71-24.94a.56.56 0 0 0 -.44-.65" fill="#fff"/></g><g fill="#197eb2"><path d="m85.93 42.28h-11.66a9.27 9.27 0 0 0 1.19 2.93 9.33 9.33 0 0 0 8 4.44 9 9 0 0 0 3.8-.81 9.56 9.56 0 0 0 3.1-2.26h7a9.84 9.84 0 0 1 -.84 1.65c-.33.52-.68 1-1.07 1.54a15.31 15.31 0 0 1 -5.22 4.23 14.67 14.67 0 0 1 -6.79 1.6 15.13 15.13 0 0 1 -6-1.19 15.33 15.33 0 0 1 -8.15-8.15 15.6 15.6 0 0 1 0-11.95 15.3 15.3 0 0 1 3.28-4.88 15.54 15.54 0 0 1 4.87-3.28 15.13 15.13 0 0 1 6-1.19 14.79 14.79 0 0 1 6.79 1.6 15 15 0 0 1 5.22 4.32 14.89 14.89 0 0 1 3.31 9.4 10.23 10.23 0 0 1 -.18 2zm-2.49-11.28a9.1 9.1 0 0 0 -5.08 1.46 9.43 9.43 0 0 0 -3.36 3.85h16.91c-.19-.31-.38-.61-.55-.92a9.05 9.05 0 0 0 -.55-.86 9.48 9.48 0 0 0 -3.25-2.61 9.2 9.2 0 0 0 -4.12-1"/><path d="m116.16 25a14.92 14.92 0 0 1 6 1.22 15.78 15.78 0 0 1 4.92 3.31 15.52 15.52 0 0 1 3.34 4.93 15.23 15.23 0 0 1 1.21 6v15h-6v-2.76a16.55 16.55 0 0 1 -4.36 2.36 15.48 15.48 0 0 1 -11.11-.36 15.55 15.55 0 0 1 -8.16-8.21 15 15 0 0 1 -1.22-6 15.23 15.23 0 0 1 1.22-6 15.43 15.43 0 0 1 8.19-8.24 15 15 0 0 1 6-1.22m0 25a8.92 8.92 0 0 0 3.68-.76 9.56 9.56 0 0 0 3-2 9.68 9.68 0 0 0 2-3 9 9 0 0 0 .76-3.64 9.19 9.19 0 0 0 -.76-3.71 9.8 9.8 0 0 0 -2-3 9.91 9.91 0 0 0 -3-2 9.31 9.31 0 0 0 -7.37 0 9.63 9.63 0 0 0 -5 5.05 9.18 9.18 0 0 0 -.75 3.71 9 9 0 0 0 .75 3.64 9.85 9.85 0 0 0 2 3 9.68 9.68 0 0 0 3 2 8.93 8.93 0 0 0 3.69.76"/><path d="m152 41.41a10.17 10.17 0 0 1 1.27 2.53 7.84 7.84 0 0 1 .41 2.87 8.4 8.4 0 0 1 -.87 3.54 9.65 9.65 0 0 1 -2.15 2.84 9.43 9.43 0 0 1 -3.13 1.89 10 10 0 0 1 -3.77.61 10.49 10.49 0 0 1 -5-1.45 9 9 0 0 1 -3.4-3.54l5-3.48a3.33 3.33 0 0 0 1.23 1.78 4.34 4.34 0 0 0 5-.12 2.73 2.73 0 0 0 1.13-2.23 2 2 0 0 0 -.06-.58v-.12a.64.64 0 0 1 -.05-.2.48.48 0 0 0 -.06-.21 3.44 3.44 0 0 0 -1.55-1.63 2 2 0 0 0 -.52-.23l.06-.06q-.82-.46-1.8-.9c-.66-.29-1.33-.6-2-.93s-1.35-.68-2-1a11.72 11.72 0 0 1 -1.85-1.31v-.06l-.18-.17a8.45 8.45 0 0 1 -1.91-2.7 7.16 7.16 0 0 1 -.64-3.28 7.84 7.84 0 0 1 .84-3.27 8.66 8.66 0 0 1 2-2.61 9.73 9.73 0 0 1 2.93-1.74 9.39 9.39 0 0 1 3.6-.58 10.32 10.32 0 0 1 4.5 1.22 8.5 8.5 0 0 1 3.16 3l-4.87 3.36a3.07 3.07 0 0 0 -1.13-1.1 3.44 3.44 0 0 0 -1.77-.46 3.5 3.5 0 0 0 -2.3.64 2 2 0 0 0 -1 1.68 1.28 1.28 0 0 0 .05.41 2.07 2.07 0 0 0 .58 1.1 3.47 3.47 0 0 0 1.17.75c.73.43 1.57.86 2.52 1.31s1.9.94 2.87 1.48a9 9 0 0 1 2.09 1.33l.29.29a12.2 12.2 0 0 1 1.31 1.33"/></g><g fill="#ecd157"><path d="m216.37 40.31a15.13 15.13 0 0 1 -1.19 6 15.54 15.54 0 0 1 -3.28 4.87 15.3 15.3 0 0 1 -4.9 3.26 15.6 15.6 0 0 1 -12 0 15.25 15.25 0 0 1 -9.34-14.13 15.25 15.25 0 0 1 4.47-10.85 15.42 15.42 0 0 1 4.87-3.28 15.13 15.13 0 0 1 6-1.19 14.82 14.82 0 0 1 5 .84 16.46 16.46 0 0 1 4.32 2.35v-12.18h6v24.31zm-15.29 9.34a9.28 9.28 0 0 0 6.59-2.72 9.45 9.45 0 0 0 2-3 9.26 9.26 0 0 0 .72-3.63v-.06a9 9 0 0 0 -.72-3.59 9.43 9.43 0 0 0 -2-3 9.25 9.25 0 0 0 -3-2 9.32 9.32 0 0 0 -7.23 0 9.25 9.25 0 0 0 -3 2 9.56 9.56 0 0 0 -2 3 9.14 9.14 0 0 0 0 7.25 9.68 9.68 0 0 0 2 3 9.28 9.28 0 0 0 6.6 2.72"/><path d="m221.31 15.83h6v6h-6zm6 39.74h-6v-30.63h6z"/><path d="m248.45 41.41a9.87 9.87 0 0 1 1.28 2.53 8.05 8.05 0 0 1 .41 2.87 8.4 8.4 0 0 1 -.87 3.54 9.83 9.83 0 0 1 -2.15 2.84 9.43 9.43 0 0 1 -3.12 1.89 10 10 0 0 1 -3.77.61 10.46 10.46 0 0 1 -5-1.45 9 9 0 0 1 -3.4-3.54l5-3.48a3.28 3.28 0 0 0 1.24 1.78 3.83 3.83 0 0 0 2.32.72 3.88 3.88 0 0 0 2.64-.84 2.75 2.75 0 0 0 1.13-2.23 2 2 0 0 0 -.06-.58v-.12a.49.49 0 0 1 -.06-.2.46.46 0 0 0 0-.21 3.44 3.44 0 0 0 -1.51-1.62 2 2 0 0 0 -.52-.23v-.06a19.88 19.88 0 0 0 -1.79-.9q-1-.44-2-.93c-.67-.33-1.34-.68-2-1a11.8 11.8 0 0 1 -1.86-1.31v-.06l-.17-.17a8.45 8.45 0 0 1 -1.91-2.7 7.16 7.16 0 0 1 -.64-3.28 7.84 7.84 0 0 1 .81-3.25 8.66 8.66 0 0 1 2-2.61 9.61 9.61 0 0 1 2.93-1.74 9.33 9.33 0 0 1 3.6-.58 10.32 10.32 0 0 1 4.5 1.22 8.57 8.57 0 0 1 3.16 3l-4.87 3.36a3 3 0 0 0 -1.14-1.1 3.39 3.39 0 0 0 -1.77-.46 3.48 3.48 0 0 0 -2.29.64 2 2 0 0 0 -1 1.68 1 1 0 0 0 .06.41 2.07 2.07 0 0 0 .58 1.1 3.52 3.52 0 0 0 1.16.75c.74.43 1.58.86 2.53 1.31s1.9.94 2.87 1.48a9 9 0 0 1 2.09 1.33l.29.29a12.22 12.22 0 0 1 1.27 1.39"/><path d="m270.19 24.88a14.64 14.64 0 0 1 6 1.22 15.62 15.62 0 0 1 8.18 8.18 15.24 15.24 0 0 1 0 11.95 15.72 15.72 0 0 1 -8.18 8.18 14.8 14.8 0 0 1 -6 1.22 14.61 14.61 0 0 1 -5.05-.87 16.42 16.42 0 0 1 -4.35-2.38v12.31h-6v-24.44a14.91 14.91 0 0 1 1.19-6 15.39 15.39 0 0 1 3.27-4.88 15.71 15.71 0 0 1 4.91-3.3 14.77 14.77 0 0 1 6-1.22m0 24.77a8.94 8.94 0 0 0 3.63-.75 9.62 9.62 0 0 0 5-5 9.14 9.14 0 0 0 0-7.25 9.62 9.62 0 0 0 -5-5 9 9 0 0 0 -3.63-.76 9.08 9.08 0 0 0 -3.68.76 9.71 9.71 0 0 0 -3 2 9.29 9.29 0 0 0 -2 3 9.08 9.08 0 0 0 -.73 3.62v.06a8.78 8.78 0 0 0 .76 3.63 9.71 9.71 0 0 0 2 3 9.33 9.33 0 0 0 6.61 2.72"/><path d="m304.78 25a14.92 14.92 0 0 1 6 1.22 16 16 0 0 1 4.93 3.31 15.38 15.38 0 0 1 4.54 11v15h-6v-2.83a16.65 16.65 0 0 1 -4.35 2.36 15.5 15.5 0 0 1 -11.12-.36 15.53 15.53 0 0 1 -4.9-3.31 15.75 15.75 0 0 1 -3.31-4.9 15 15 0 0 1 -1.21-6 15.23 15.23 0 0 1 1.21-6 15.41 15.41 0 0 1 8.2-8.24 14.92 14.92 0 0 1 6-1.22m0 25a8.92 8.92 0 0 0 3.68-.76 9.45 9.45 0 0 0 3-2 9.68 9.68 0 0 0 2-3 8.83 8.83 0 0 0 .76-3.64 9 9 0 0 0 -.76-3.71 9.63 9.63 0 0 0 -5-5.05 9.29 9.29 0 0 0 -7.36 0 9.63 9.63 0 0 0 -5 5.05 9 9 0 0 0 -.76 3.71 8.83 8.83 0 0 0 .76 3.64 9.68 9.68 0 0 0 2 3 9.45 9.45 0 0 0 3 2 8.88 8.88 0 0 0 3.68.76"/><path d="m338.47 28.48h-5.57v27.15h-5.97v-27.15h-5.63v-5.98h5.63v-11.37h5.97v11.37h5.57z"/><path d="m354.79 49.6a9 9 0 0 0 4.18-1 9.69 9.69 0 0 0 3.19-2.6l4.7 3.65a15.52 15.52 0 0 1 -5.22 4.35 15.35 15.35 0 0 1 -12.77.42 15.47 15.47 0 0 1 -8.2-8.15 15 15 0 0 1 -1.2-6 14.76 14.76 0 0 1 1.2-5.91 15.22 15.22 0 0 1 3.33-4.9 15.63 15.63 0 0 1 4.89-3.28 15.15 15.15 0 0 1 18 4.73l-4.7 3.66a9.08 9.08 0 0 0 -3.19-2.64 9.55 9.55 0 0 0 -7.81-.24 9.23 9.23 0 0 0 -5 5 9.39 9.39 0 0 0 0 7.21 9.48 9.48 0 0 0 2 3 9.86 9.86 0 0 0 3 2 8.94 8.94 0 0 0 3.63.75"/><path d="m392.13 27.14a13.39 13.39 0 0 1 4.36 4.73 13 13 0 0 1 1.62 6.41v17.41h-6v-17.41a7 7 0 0 0 -.58-2.84 7.55 7.55 0 0 0 -3.94-3.95 7.19 7.19 0 0 0 -2.85-.58 7.4 7.4 0 0 0 -2.87.58 7.15 7.15 0 0 0 -2.35 1.6 7.66 7.66 0 0 0 -1.52 2.35 7 7 0 0 0 -.58 2.84v17.41h-6v-39.27h6v10.72a12.71 12.71 0 0 1 3.45-1.62 13.5 13.5 0 0 1 7.83 0 12.71 12.71 0 0 1 3.45 1.62"/></g><path d="m161.53 62.67h6.89l1.12-2.34 3.54-7.37 13.46-27.91h-6.9l-9.81 20.37-8.93-20.37h-6.79l12.18 27.74z" fill="#197eb2"/></svg>