<svg xmlns="http://www.w3.org/2000/svg" viewBox="0 0 556.32 128.98"><defs><style>.cls-1{fill:#172538;}.cls-2{fill:#d98e2a;}</style></defs><title>easypay logo_svg_1</title><g id="Layer_2" data-name="Layer 2"><g id="Layer_1-2" data-name="Layer 1"><path class="cls-1" d="M27.06,77.12c3.9,3.43,8.81,5.14,14.69,5.14a26.82,26.82,0,0,0,6.34-.73,29.23,29.23,0,0,0,5.38-1.85,34.72,34.72,0,0,0,4.26-2.32c1.23-.8,2.22-1.48,3-2A11.92,11.92,0,0,1,65,74.06a8.06,8.06,0,0,1,6.18,2.73,8.85,8.85,0,0,1,2.49,6.11,8.05,8.05,0,0,1-1.28,4.41,13.56,13.56,0,0,1-2.89,3.29,42.17,42.17,0,0,1-12.05,6.67,48.8,48.8,0,0,1-17.34,2.81,40.9,40.9,0,0,1-16.22-3.14A36.84,36.84,0,0,1,11.24,88.2,40.39,40.39,0,0,1,3,74.87,46.54,46.54,0,0,1,0,58,45.82,45.82,0,0,1,3.05,41.31a42.46,42.46,0,0,1,8.43-13.66A40,40,0,0,1,24.25,18.5a37.77,37.77,0,0,1,15.9-3.37,37.64,37.64,0,0,1,15.17,3A36.5,36.5,0,0,1,67,26a34.93,34.93,0,0,1,7.47,11.32,34.54,34.54,0,0,1,2.65,13.33,18.41,18.41,0,0,1-1.69,8.43c-1.12,2.2-3.5,3.29-7.14,3.29H19.91Q21.2,72,27.06,77.12M27,37.7q-5.29,4.56-6.9,12.92H57.81a15.71,15.71,0,0,0-1-6.19,17.25,17.25,0,0,0-3.46-5.7,17,17,0,0,0-5.7-4.09A18.44,18.44,0,0,0,40,33.12,19.21,19.21,0,0,0,27,37.7"/><path class="cls-1" d="M173.63,29.66A23,23,0,0,1,179.9,22,30.37,30.37,0,0,1,189.53,17a38.9,38.9,0,0,1,12.2-1.84q9.48,0,15.58,2.57a30.37,30.37,0,0,1,9.8,6.27,10.62,10.62,0,0,1,2.49,3.68,10.43,10.43,0,0,1,.72,3.54,10.26,10.26,0,0,1-2,5.7,6.33,6.33,0,0,1-5.54,3,7.66,7.66,0,0,1-3.29-.79,23.29,23.29,0,0,1-3.29-1.92A44.66,44.66,0,0,0,210.73,34a18.91,18.91,0,0,0-8.51-1.69,16.85,16.85,0,0,0-7.47,1.53,5.35,5.35,0,0,0-3.13,5.22,5.55,5.55,0,0,0,3,4.9,44.09,44.09,0,0,0,7.71,3.53l10,3.61a56.62,56.62,0,0,1,10,4.73A25.65,25.65,0,0,1,230,63a18.25,18.25,0,0,1,3.05,10.76,23.68,23.68,0,0,1-2.33,10.43,25.32,25.32,0,0,1-6.5,8.36,31.07,31.07,0,0,1-10,5.53,40.19,40.19,0,0,1-13.09,2,46,46,0,0,1-16.86-2.73A30.23,30.23,0,0,1,173,90a9.68,9.68,0,0,1-2.41-3.53,10.22,10.22,0,0,1-.64-3.53,9.39,9.39,0,0,1,2.33-6,6.94,6.94,0,0,1,5.53-2.89,8.87,8.87,0,0,1,4,.89,22,22,0,0,1,2.89,1.69,35.17,35.17,0,0,0,7.14,4.4,20.51,20.51,0,0,0,8.92,1.86c3.75,0,6.69-.59,8.84-1.77a6.09,6.09,0,0,0,3.2-5.77,6.56,6.56,0,0,0-3.05-5.55A32.18,32.18,0,0,0,202.05,66q-4.65-1.68-10-3.53a50.05,50.05,0,0,1-10-4.73,26.4,26.4,0,0,1-7.71-7.23q-3-4.34-3.05-11.25a20.76,20.76,0,0,1,2.25-9.55"/><path class="cls-1" d="M233,31.83a11.82,11.82,0,0,1-.88-2.89,15.85,15.85,0,0,1-.24-2.57,8.64,8.64,0,0,1,3.21-7,11.47,11.47,0,0,1,7.54-2.64A8.54,8.54,0,0,1,248,18.42a10.6,10.6,0,0,1,3.29,4.42l18.46,51.55,20.08-51.23a15.19,15.19,0,0,1,3-4.5,7.13,7.13,0,0,1,5.38-1.92A10,10,0,0,1,305,19.22a8.47,8.47,0,0,1,2.81,6.67,13.4,13.4,0,0,1-.48,3.53,24.1,24.1,0,0,1-1,2.89l-28.74,69.38a77.6,77.6,0,0,1-6.75,13,36.22,36.22,0,0,1-7.47,8.43,24.87,24.87,0,0,1-8.59,4.5,34.88,34.88,0,0,1-9.95,1.36q-6.11,0-9-2.24a7.67,7.67,0,0,1-2.9-6.43,9.24,9.24,0,0,1,2.41-6.58c1.61-1.71,4-2.57,7.07-2.57q7.23,0,11.07-2.56a15.49,15.49,0,0,0,5.79-7.72l1-2.56Z"/><path class="cls-1" d="M326.59,126.34a9.56,9.56,0,0,1-6.91,2.64,10.08,10.08,0,0,1-7.06-2.64,8.83,8.83,0,0,1-2.89-6.83V25.08a8.47,8.47,0,0,1,2.4-5.61c1.61-1.83,4.13-2.73,7.55-2.73s5.89.85,7.39,2.56a8.55,8.55,0,0,1,2.24,5.78v6.43a37.38,37.38,0,0,1,9.88-11.57q6.18-4.8,16.3-4.81a34.81,34.81,0,0,1,14.93,3.14A33.61,33.61,0,0,1,382,27a40,40,0,0,1,7.46,13.49,53.51,53.51,0,0,1,2.65,17.19,50.81,50.81,0,0,1-2.72,16.93A40.8,40.8,0,0,1,381.75,88,35.37,35.37,0,0,1,370,96.87a35.78,35.78,0,0,1-15.26,3.21q-9.31,0-15.74-4.65a29.17,29.17,0,0,1-9.64-11.89v36a9.13,9.13,0,0,1-2.72,6.83m33-46A19.36,19.36,0,0,0,366.25,75a24.1,24.1,0,0,0,4.17-7.87,30.6,30.6,0,0,0,1.45-9.47,31.14,31.14,0,0,0-1.45-9.64,23.11,23.11,0,0,0-4.17-7.79A20.91,20.91,0,0,0,341.76,35a20.48,20.48,0,0,0-6.75,5.3,23.7,23.7,0,0,0-4.25,7.87,30.87,30.87,0,0,0-1.45,9.48,31.26,31.26,0,0,0,1.45,9.62,22.7,22.7,0,0,0,4.25,7.8,20.75,20.75,0,0,0,6.75,5.21,21.43,21.43,0,0,0,17.82,0"/><path class="cls-1" d="M481.44,80.65a4.33,4.33,0,0,1,3.77,2,10.11,10.11,0,0,1,1.37,5.7q0,10.13-12.37,10.12-8,0-11.73-4.25a20,20,0,0,1-4.65-9.88l-.16-1.92a30.05,30.05,0,0,1-10.84,13.09,29.44,29.44,0,0,1-16.46,4.57,32.12,32.12,0,0,1-13.65-3,33.77,33.77,0,0,1-11.24-8.43,40.52,40.52,0,0,1-7.63-13.25A50.89,50.89,0,0,1,395,58a49.94,49.94,0,0,1,3-17.59,41.92,41.92,0,0,1,8-13.56,35.57,35.57,0,0,1,11.73-8.68,33.38,33.38,0,0,1,14-3q10,0,16.14,4.42a29.9,29.9,0,0,1,9.72,12V25.08a7.52,7.52,0,0,1,2.73-6,10.71,10.71,0,0,1,7.22-2.33,10.42,10.42,0,0,1,7.15,2.33,7.64,7.64,0,0,1,2.65,6V73.42c0,4.83,1.34,7.23,4,7.23m-36.7-.08a19.79,19.79,0,0,0,6.83-4.82,22.78,22.78,0,0,0,4.57-7.63A28.43,28.43,0,0,0,457.83,58q0-11.25-5.86-18.08t-15.5-6.81q-10,0-15.57,6.9t-5.63,18a29.25,29.25,0,0,0,1.61,10,22.89,22.89,0,0,0,4.5,7.62,19.4,19.4,0,0,0,6.74,4.9,21.28,21.28,0,0,0,16.62,0"/><path class="cls-1" d="M481.48,31.83a12.76,12.76,0,0,1-.88-2.89,16.94,16.94,0,0,1-.23-2.57,8.61,8.61,0,0,1,3.21-7,11.43,11.43,0,0,1,7.54-2.64,8.49,8.49,0,0,1,5.38,1.68,10.62,10.62,0,0,1,3.3,4.42l18.46,51.55,20.08-51.23a15,15,0,0,1,3-4.5,7.11,7.11,0,0,1,5.38-1.92,9.91,9.91,0,0,1,6.82,2.48,8.47,8.47,0,0,1,2.81,6.67,13.4,13.4,0,0,1-.48,3.53,21,21,0,0,1-1,2.89l-28.74,69.38a76.14,76.14,0,0,1-6.75,13,36.2,36.2,0,0,1-7.46,8.43,25,25,0,0,1-8.59,4.5,35,35,0,0,1-10,1.36q-6.11,0-9-2.24a7.67,7.67,0,0,1-2.9-6.43,9.24,9.24,0,0,1,2.42-6.58q2.42-2.57,7.06-2.57,7.23,0,11.08-2.56a15.42,15.42,0,0,0,5.78-7.72l1-2.56Z"/><path class="cls-2" d="M179.76,52.93a57.61,57.61,0,1,0-62.1,62.1,57.84,57.84,0,0,0,62.1-62.1m-16.52,9.41a41.16,41.16,0,0,1-82-3.87H133A8.22,8.22,0,0,0,133,42h-2.38c-.1,0-.19,0-.29,0H84.24a41.17,41.17,0,0,1,79,20.34"/></g></g></svg>