<svg xmlns="http://www.w3.org/2000/svg" width="3233.723" height="709.14" viewBox="0 0 3233.723 709.14"><g transform="translate(0 0)"><g transform="translate(747.72 533.405)"><path d="M101.737,805.068h16.389v85.745H101.737Z" transform="translate(-101.737 -801.395)" fill="#606060"/><path d="M114.227,869.881V835.82H105.3v-12.73h8.93v-17.76h16.125v17.76H149.27v12.73H130.352v31.734c0,5.76,3.195,8.088,8.654,8.088a23.182,23.182,0,0,0,10-2.215v12.125a30.138,30.138,0,0,1-14.528,3.307C122.617,888.86,114.227,884.081,114.227,869.881Z" transform="translate(-60.519 -798.35)" fill="#606060"/><path d="M110.669,833.356c8.125-1.345,12-5.144,11.333-11.509h-6.8V805.068H132.92v14.326c0,13.6-7.056,19.357-20.515,20.339Z" transform="translate(1.678 -801.395)" fill="#606060"/><path d="M114.113,863.985l7.195-10.05c7.6,5.27,15.861,7.961,23.056,7.961,6.93,0,10.93-2.691,10.93-6.981v-.238c0-5.032-7.471-6.742-15.735-9.069-10.389-2.7-21.986-6.616-21.986-18.98v-.252c0-12.251,11.069-19.721,25.055-19.721A51.877,51.877,0,0,1,168.475,814l-6.39,10.541c-6.792-3.8-14-6.126-19.861-6.126-6.264,0-9.861,2.692-9.861,6.491v.25c0,4.654,7.6,6.6,15.861,9.056,10.264,2.944,21.848,7.233,21.848,18.867v.24c0,13.6-11.459,20.338-26.112,20.338A52.281,52.281,0,0,1,114.113,863.985Z" transform="translate(41.552 -783.02)" fill="#606060"/><path d="M172.236,872.323v-7.963c-4.792,5.257-12.125,9.307-22.779,9.307-13.333,0-25.055-6.98-25.055-19.96v-.252c0-14.327,12.125-21.193,28.514-21.193a64.31,64.31,0,0,1,19.458,2.691v-1.221c0-8.942-6.126-13.836-17.333-13.836a52.518,52.518,0,0,0-20.112,4.038l-4.4-11.874a64.684,64.684,0,0,1,26.791-5.4c20.779,0,30.9,10.05,30.9,27.307v38.351Zm.4-27.082a49.68,49.68,0,0,0-16.125-2.565c-10.125,0-16.125,3.8-16.125,10.049v.239c0,6.126,6,9.56,13.6,9.56,10.654,0,18.653-5.509,18.653-13.6Z" transform="translate(160.678 -782.905)" fill="#606060"/><path d="M131.416,863.985l7.195-10.05c7.6,5.27,15.861,7.961,23.055,7.961,6.93,0,10.93-2.691,10.93-6.981v-.238c0-5.032-7.471-6.742-15.722-9.069-10.39-2.7-21.986-6.616-21.986-18.98v-.252c0-12.251,11.056-19.721,25.043-19.721A51.923,51.923,0,0,1,185.791,814l-6.4,10.541c-6.792-3.8-13.987-6.126-19.848-6.126-6.263,0-9.861,2.692-9.861,6.491v.25c0,4.654,7.585,6.6,15.848,9.056,10.263,2.944,21.86,7.233,21.86,18.867v.24c0,13.6-11.459,20.338-26.125,20.338A52.28,52.28,0,0,1,131.416,863.985Z" transform="translate(241.886 -783.02)" fill="#606060"/><path d="M141.631,863.985l7.195-10.05c7.6,5.27,15.861,7.961,23.055,7.961,6.931,0,10.931-2.691,10.931-6.981v-.238c0-5.032-7.471-6.742-15.735-9.069-10.39-2.7-21.974-6.616-21.974-18.98v-.252c0-12.251,11.056-19.721,25.043-19.721A51.877,51.877,0,0,1,195.993,814l-6.39,10.541c-6.792-3.8-14-6.126-19.861-6.126-6.264,0-9.861,2.692-9.861,6.491v.25c0,4.654,7.6,6.6,15.861,9.056,10.264,2.944,21.848,7.233,21.848,18.867v.24c0,13.6-11.458,20.338-26.112,20.338A52.281,52.281,0,0,1,141.631,863.985Z" transform="translate(360.155 -783.02)" fill="#606060"/><path d="M148.275,804.834h17.32v14.088h-17.32Zm.667,24.011h16.125v64.678H148.942Z" transform="translate(437.079 -804.104)" fill="#606060"/><path d="M152.152,807.981H168.29v9.8c4.528-5.76,10.654-11.144,21.446-11.144,10.125,0,17.194,4.528,20.917,11.4,5.736-6.867,13.195-11.4,23.848-11.4,15.333,0,24.665,8.942,24.665,24.741v41.281H243.028V835.906c0-10.289-5.182-15.8-14.251-15.8-8.792,0-15.056,5.636-15.056,16.05v36.5H197.6V835.779c0-10.037-5.333-15.673-14.264-15.673s-15.043,6.125-15.043,16.163v36.389H152.152Z" transform="translate(481.967 -783.241)" fill="#606060"/><path d="M163.088,807.981h16.125v10.781c5.195-6.741,12.528-12.125,23.86-12.125,16.654,0,32.766,12.125,32.766,33.558v.252c0,21.433-15.987,33.557-32.766,33.557-11.6,0-18.93-5.4-23.86-11.4v29.634H163.088Zm56.362,32.465v-.252c0-12.49-9.194-20.7-20.112-20.7a20.266,20.266,0,0,0-20.515,20.7v.252a20.187,20.187,0,0,0,20.515,20.691C210.394,861.137,219.45,853.176,219.45,840.446Z" transform="translate(608.584 -783.241)" fill="#606060"/><path d="M171.131,804.776h16.125v89.417H171.131Z" transform="translate(701.706 -804.776)" fill="#606060"/><path d="M174.649,840.559v-.24c0-18.5,14.251-33.684,34.376-33.684,22.376,0,33.709,16.163,33.709,34.778,0,1.358-.138,2.692-.264,4.164H190.761c1.736,10.54,9.874,16.427,20.263,16.427,7.861,0,13.458-2.706,19.055-7.724l9.459,7.724c-6.666,7.345-15.861,12.124-28.791,12.124C190.372,874.129,174.649,860.533,174.649,840.559Zm52.1-4.78c-1.069-9.548-7.195-17.018-17.861-17.018-9.861,0-16.779,6.981-18.251,17.018Z" transform="translate(742.438 -783.241)" fill="#606060"/><path d="M233.725,872.323v-7.963c-4.8,5.257-12.125,9.307-22.779,9.307-13.333,0-25.055-6.98-25.055-19.96v-.252c0-14.327,12.125-21.193,28.514-21.193a64.156,64.156,0,0,1,19.445,2.691v-1.221c0-8.942-6.125-13.836-17.32-13.836a52.517,52.517,0,0,0-20.112,4.038l-4.4-11.874a64.6,64.6,0,0,1,26.791-5.4c20.779,0,30.9,10.05,30.9,27.307v38.351Zm.4-27.082A49.68,49.68,0,0,0,218,842.677c-10.125,0-16.125,3.8-16.125,10.049v.239c0,6.126,6,9.56,13.584,9.56,10.666,0,18.666-5.509,18.666-13.6Z" transform="translate(872.597 -782.905)" fill="#606060"/><path d="M192.9,863.985l7.207-10.05c7.6,5.27,15.848,7.961,23.056,7.961,6.917,0,10.918-2.691,10.918-6.981v-.238c0-5.032-7.459-6.742-15.723-9.069-10.389-2.7-21.986-6.616-21.986-18.98v-.252c0-12.251,11.056-19.721,25.056-19.721A51.914,51.914,0,0,1,247.28,814l-6.4,10.541c-6.792-3.8-13.987-6.126-19.848-6.126-6.264,0-9.861,2.692-9.861,6.491v.25c0,4.654,7.6,6.6,15.848,9.056,10.264,2.944,21.86,7.233,21.86,18.867v.24c0,13.6-11.458,20.338-26.124,20.338A52.31,52.31,0,0,1,192.9,863.985Z" transform="translate(953.805 -783.02)" fill="#606060"/><path d="M212.061,869.881V835.82h-8.93v-12.73h8.93v-17.76h16.112v17.76H247.1v12.73h-18.93v31.734c0,5.76,3.2,8.088,8.667,8.088a23.264,23.264,0,0,0,10-2.215v12.125a30.139,30.139,0,0,1-14.528,3.307C220.451,888.86,212.061,884.081,212.061,869.881Z" transform="translate(1072.202 -798.35)" fill="#606060"/><path d="M208.789,804.776h16.125v34.791c4.528-6.137,11.056-11.4,21.986-11.4,15.848,0,25.043,9.8,25.043,24.865v41.156H255.818V857.44c0-10.038-5.459-15.8-15.056-15.8-9.333,0-15.848,6-15.848,16.05v36.5H208.789Z" transform="translate(1137.71 -804.776)" fill="#606060"/><path d="M263.68,872.323v-7.963c-4.8,5.257-12.125,9.307-22.791,9.307-13.32,0-25.043-6.98-25.043-19.96v-.252c0-14.327,12.125-21.193,28.515-21.193a64.312,64.312,0,0,1,19.458,2.691v-1.221c0-8.942-6.138-13.836-17.333-13.836a52.517,52.517,0,0,0-20.112,4.038l-4.4-11.874a64.6,64.6,0,0,1,26.791-5.4c20.779,0,30.9,10.05,30.9,27.307v38.351Zm.4-27.082a49.681,49.681,0,0,0-16.125-2.565c-10.125,0-16.125,3.8-16.125,10.049v.239c0,6.126,6,9.56,13.584,9.56,10.666,0,18.666-5.509,18.666-13.6Z" transform="translate(1219.416 -782.905)" fill="#606060"/><path d="M231.749,869.881V835.82h-8.931v-12.73h8.931v-17.76h16.125v17.76h18.917v12.73H247.873v31.734c0,5.76,3.195,8.088,8.666,8.088a23.167,23.167,0,0,0,9.987-2.215v12.125A30.139,30.139,0,0,1,252,888.86C240.138,888.86,231.749,884.081,231.749,869.881Z" transform="translate(1300.138 -798.35)" fill="#606060"/><path d="M228.519,809.357v-4.289h18.917v4.289l-4.93,54.375h-8.93Zm.667,64.664h17.722v16.792H229.186Z" transform="translate(1366.144 -801.395)" fill="#606060"/></g><g transform="translate(0 0)"><g transform="translate(0 0)"><ellipse cx="282.123" cy="282.123" rx="282.123" ry="282.123" transform="translate(72.447 72.444)" fill="#d58b29"/><circle cx="250.719" cy="250.719" r="250.719" transform="translate(0 354.57) rotate(-45)" fill="#efcd4e"/><path d="M95.274,841.313c13.408-5.144,11.031-27.583-7.584-41.244,10.188,15.22-17.433,32.112-.579,40.928A12.2,12.2,0,0,0,95.274,841.313Z" transform="translate(411.93 -325.857)" fill="#f9f9f9" fill-rule="evenodd"/><g transform="translate(210.931 367.048)"><path d="M202.7,959.87a178.949,178.949,0,0,1-81.141-19.206,182.688,182.688,0,0,1-60.613-49.407,8.7,8.7,0,0,1-1.811-6.566,8.966,8.966,0,0,1,3.534-6.012,8.712,8.712,0,0,1,5.22-1.735,8.859,8.859,0,0,1,6.981,3.408,164.908,164.908,0,0,0,54.664,44.5A161.178,161.178,0,0,0,202.7,942.134a164.416,164.416,0,0,0,27.634-2.365c23.621-13.734,24.665-45.632,25.6-73.756.78-23.634,1.509-45.96,14.4-59.846A45.965,45.965,0,0,1,296.593,792.1a45.34,45.34,0,0,1,7.144-.554,54.838,54.838,0,0,1,22.867,5.322c13.584,8.729,22.389,18.929,27.319,30.928,5.9,14.327,5.887,30.527-.05,46.853a52.781,52.781,0,0,1-11.144,18.729,183.6,183.6,0,0,1-58.89,47.281A178.987,178.987,0,0,1,202.7,959.87ZM303.712,808.984a27.855,27.855,0,0,0-4.428.34,28.337,28.337,0,0,0-16.175,8.729c-8.452,9.094-9.094,28.237-9.761,48.5-.7,21.509-1.484,45.482-11.785,64.613q7.415-2.848,14.314-6.314a164.875,164.875,0,0,0,54.651-44.513c.654-.818,2.817-3.572,2.817-3.572,5.824-10.1,11.32-25.672,4.453-42.338-3.509-8.565-10.012-16.012-19.295-22.137A37.469,37.469,0,0,0,303.712,808.984Z" transform="translate(-59.06 -791.55)" fill="#c62d42" fill-rule="evenodd"/></g><g transform="translate(174.566 174.567)"><path d="M407.485,964.955a8.7,8.7,0,0,1-8.7-8.7c0-89.668-72.952-162.6-162.608-162.6s-162.6,72.928-162.6,162.6a8.7,8.7,0,0,1-17.408,0c0-99.253,80.751-180,180-180s180.016,80.75,180.016,180A8.707,8.707,0,0,1,407.485,964.955Z" transform="translate(-56.169 -776.247)" fill="#c62d42"/></g></g></g><g transform="translate(737.268 98.067)"><g transform="translate(1605.467 94.449)"><path d="M412.324,907.768H457.73a79.689,79.689,0,0,0,1.308-14.842A112.208,112.208,0,0,0,434.159,822.2a113.82,113.82,0,0,0-39.294-32.514A110.937,110.937,0,0,0,343.8,777.674a113.307,113.307,0,0,0-44.966,8.956A115.037,115.037,0,0,0,237.49,847.96a117.522,117.522,0,0,0,0,89.933,114.926,114.926,0,0,0,61.343,61.33,113.087,113.087,0,0,0,44.966,8.956,110.939,110.939,0,0,0,51.066-12,116.137,116.137,0,0,0,39.294-32.087q4.358-5.68,8.075-11.571a78.657,78.657,0,0,0,6.327-12.44H395.746A72.923,72.923,0,0,1,372.389,957.1a67.728,67.728,0,0,1-28.59,6.113,69,69,0,0,1-24.011-4.151,70.508,70.508,0,0,1-20.515-11.572,69.012,69.012,0,0,1-15.509-17.671,71.15,71.15,0,0,1-8.943-22.05h137.5ZM305.6,833.658q16.791-11,38.2-11.018a69.086,69.086,0,0,1,30.992,7.132,71.6,71.6,0,0,1,24.439,19.647,68.554,68.554,0,0,1,4.15,6.49c1.308,2.3,2.692,4.591,4.151,6.893H280.054A71.139,71.139,0,0,1,305.6,833.658Zm391.553,15.181a115.175,115.175,0,0,0-25.055-37.1,120.163,120.163,0,0,0-37.042-24.891,115.486,115.486,0,0,0-90.2,0,115.95,115.95,0,0,0-61.645,62,114.232,114.232,0,0,0-9.157,45.394,112.532,112.532,0,0,0,9.17,45.194A116.693,116.693,0,0,0,545,1001.184a116.494,116.494,0,0,0,83.606,2.693,123.852,123.852,0,0,0,32.74-17.736V1007.3h44.966V894.234A114.236,114.236,0,0,0,697.153,848.839ZM655.67,921.692a72.877,72.877,0,0,1-37.759,38,70.313,70.313,0,0,1-55.456,0,72.878,72.878,0,0,1-37.759-38,67.644,67.644,0,0,1-5.673-27.458,68.711,68.711,0,0,1,5.673-27.885,72.753,72.753,0,0,1,37.759-38,70.175,70.175,0,0,1,55.456,0,72.752,72.752,0,0,1,37.759,38,68.924,68.924,0,0,1,5.672,27.885A67.857,67.857,0,0,1,655.67,921.692Zm203.776-20.465a89.848,89.848,0,0,0-9.6-10.489l-2.188-2.177a67.671,67.671,0,0,0-15.71-10.037q-10.924-6.114-21.609-11.131-10.716-5.018-18.993-9.824a26.681,26.681,0,0,1-8.729-5.673,15.263,15.263,0,0,1-4.364-8.3,7.266,7.266,0,0,1-.441-3.056q0-7.415,7.207-12.654t17.245-4.8a25.616,25.616,0,0,1,13.307,3.5,22.326,22.326,0,0,1,8.515,8.29l36.665-25.32a63.835,63.835,0,0,0-23.785-22.262,76.707,76.707,0,0,0-33.835-9.17,69.749,69.749,0,0,0-27.068,4.365,71.015,71.015,0,0,0-22.049,13.106,64.084,64.084,0,0,0-15.056,19.635,58.33,58.33,0,0,0-6.113,24.451,54.55,54.55,0,0,0,4.8,24.665,64.427,64.427,0,0,0,14.4,20.3l1.308,1.306v.442a83.86,83.86,0,0,0,13.974,9.823q7.415,4.151,15.056,7.848,7.641,3.718,15.069,6.995A147.27,147.27,0,0,1,811,917.817l-.44.428a17.467,17.467,0,0,1,3.924,1.748q8.3,4.812,11.358,12.226a3.505,3.505,0,0,1,.428,1.521,3.535,3.535,0,0,0,.44,1.535v.869a15.307,15.307,0,0,1,.44,4.365q0,10.037-8.515,16.8a29.03,29.03,0,0,1-19.861,6.339,28.638,28.638,0,0,1-17.47-5.459,24.46,24.46,0,0,1-9.6-13.32l-37.546,26.2A67.062,67.062,0,0,0,759.69,997.7a78.8,78.8,0,0,0,37.772,10.917,74.866,74.866,0,0,0,28.376-4.591,71.069,71.069,0,0,0,23.571-14.188,72.791,72.791,0,0,0,16.15-21.383,63.268,63.268,0,0,0,6.553-26.64,59.777,59.777,0,0,0-3.056-21.608,75.717,75.717,0,0,0-9.61-18.981m71.871,159.955h51.821l8.478-17.648,26.627-55.442,101.291-209.977h-51.96L993.8,931.352,926.575,778.114H875.5l91.681,208.669Z" transform="translate(-228.547 -777.674)" fill="#d58b29"/></g><path d="M280.52,932.12l34.023-32.314c-20.678-26.7-54.274-42.211-96.486-42.211-69.342,0-117.151,47.381-117.151,117.591,0,69.354,47.381,116.724,116.3,116.724,45.218,0,79.681-17.231,99.932-46.513l-34.892-28.867c-13.785,18.1-35.319,27.143-62.022,27.143-37.042,0-62.89-27.57-62.89-68.913,0-40.49,25.848-68.06,62.89-68.06,25.407,0,45.658,9.483,60.3,25.42Zm179.827-74.954c-37.91.429-66.764,14.654-83.128,46.086V770.165h-56v319.594h56V976.482c0-37.91,22.829-65.909,60.726-66.335,31.872,0,51.255,19.822,51.255,52.123v127.49h56.425V945.893c0-54.69-32.3-88.726-85.279-88.726ZM675.783,858.6c-72.789,0-121.893,46.954-121.893,116.724,0,70.223,49.1,117.592,121.893,117.592,71.934,0,121.038-47.369,121.038-117.592,0-69.77-49.1-116.724-121.038-116.724Zm0,47.822c37.9,0,64.6,28.426,64.6,69.758,0,41.356-26.7,69.795-64.6,69.795-38.765,0-65.468-28.439-65.468-69.795,0-41.333,26.7-69.758,65.468-69.758Zm264.4-48.827c-34.464,0-61.167,14.225-77.531,39.632v-37.91H806.67v267.61c15.37-6.642,33.068-10.289,52.714-10.415,1.094-.012,2.189-.025,3.27-.012V1052.29c16.791,25.407,43.495,39.621,78.386,39.621,65.469,0,108.12-46.941,108.12-116.284,0-70.651-43.935-118.031-108.976-118.031ZM927.7,1043.673c-38.338,0-65.041-28.426-65.041-69.783,0-40.475,26.7-69.342,65.041-69.342,37.9,0,64.6,28.867,64.6,69.342C992.3,1014.821,965.592,1043.673,927.7,1043.673Zm327.921-175.789V914.6c-16.678-30.867-46.7-48.8-86.323-48.375-61.72,0-104.674,45.872-104.674,110.925,0,65.482,43.369,111.769,105.932,111.769,38.778,0,68.8-17.937,85.065-48.376v46.7h32.527V867.884Zm-78.814,193.1c-46.715,0-79.656-34.627-79.656-83s32.942-83.4,79.656-83.4c43.369,0,75.066,30.866,78.814,75.065v16.678c-3.748,44.211-35.444,74.663-78.814,74.663Zm423.086-194.343c-42.111.414-72.977,18.766-86.738,57.13-9.182-36.288-37.533-57.13-78.826-57.13-39.608.414-69.229,16.679-83.82,50.878V867.884h-32.112v219.36H1350.5V979.237c0-47.544,27.105-80.486,72.147-81.744,38.363,0,60.89,23.357,60.89,62.977v126.775h32.942V979.237c0-47.544,26.275-80.486,71.732-81.744,37.948,0,60.89,23.357,60.89,62.977v126.775h32.527V952.132C1681.633,898.751,1651.194,866.638,1599.888,866.638Z" transform="translate(-100.906 -770.165)" fill="#d58b29" fill-rule="evenodd"/></g></g></svg>