<svg xmlns="http://www.w3.org/2000/svg" width="3196.434" height="694.423" viewBox="0 0 3196.434 694.423"><g transform="translate(-36.493 -36.494)"><g transform="matrix(0.995, -0.105, 0.105, 0.995, 0, 72.987)"><g transform="translate(0 0)"><ellipse cx="277.79" cy="277.79" rx="277.79" ry="277.79" transform="translate(71.334 71.331)" fill="#f9f9f9"/><ellipse cx="246.868" cy="246.868" rx="246.868" ry="246.868" transform="translate(0 349.124) rotate(-45)" fill="#efcd4e"/><path d="M13.541,40.61C26.743,35.545,24.4,13.451,6.073,0,16.1,14.986-11.092,31.618,5.5,40.3A12.012,12.012,0,0,0,13.541,40.61Z" transform="translate(485.872 466.929)" fill="#f9f9f9" fill-rule="evenodd"/><g transform="translate(207.692 361.411)"><path d="M141.432,165.734a176.2,176.2,0,0,1-79.894-18.912A179.881,179.881,0,0,1,1.855,98.175,8.571,8.571,0,0,1,.072,91.71a8.827,8.827,0,0,1,3.48-5.92,8.575,8.575,0,0,1,5.14-1.709,8.725,8.725,0,0,1,6.874,3.356A162.382,162.382,0,0,0,69.39,131.255a158.7,158.7,0,0,0,72.042,17.017,161.856,161.856,0,0,0,27.209-2.329c23.259-13.524,24.287-44.931,25.2-72.624.768-23.271,1.486-45.254,14.181-58.927A45.261,45.261,0,0,1,233.885.545,44.654,44.654,0,0,1,240.919,0a53.991,53.991,0,0,1,22.516,5.24c13.376,8.594,22.045,18.639,26.9,30.454,5.809,14.107,5.8,30.058-.05,46.133a51.972,51.972,0,0,1-10.973,18.441,180.778,180.778,0,0,1-57.986,46.555A176.233,176.233,0,0,1,141.432,165.734ZM240.894,17.166a27.457,27.457,0,0,0-4.36.335A27.9,27.9,0,0,0,220.608,26.1c-8.323,8.954-8.954,27.8-9.611,47.756-.693,21.179-1.461,44.784-11.6,63.621q7.3-2.8,14.094-6.217A162.344,162.344,0,0,0,267.3,87.425c.644-.805,2.774-3.517,2.774-3.517,5.734-9.945,11.146-25.278,4.384-41.687-3.455-8.434-9.858-15.767-19-21.8A36.9,36.9,0,0,0,240.894,17.166Z" transform="translate(0 0)" fill="#f9f9f9" fill-rule="evenodd"/></g><g transform="translate(171.885 171.886)"><path d="M345.92,185.81a8.566,8.566,0,0,1-8.57-8.57c0-88.291-71.832-160.1-160.111-160.1s-160.1,71.807-160.1,160.1a8.57,8.57,0,0,1-17.141,0C0,79.511,79.511,0,177.239,0S354.49,79.511,354.49,177.239A8.574,8.574,0,0,1,345.92,185.81Z" transform="translate(0 0)" fill="#f9f9f9"/></g></g></g><g transform="translate(774.815 202.592)"><g transform="translate(1580.809 92.998)"><path d="M409.5,905.77H454.21a78.476,78.476,0,0,0,1.288-14.614,110.487,110.487,0,0,0-24.5-69.64,112.078,112.078,0,0,0-38.69-32.015,109.242,109.242,0,0,0-50.282-11.828,111.555,111.555,0,0,0-44.276,8.819,113.27,113.27,0,0,0-60.4,60.388,115.719,115.719,0,0,0,0,88.552,113.166,113.166,0,0,0,60.4,60.388,111.355,111.355,0,0,0,44.276,8.818,109.238,109.238,0,0,0,50.282-11.814A114.348,114.348,0,0,0,431,961.229q4.291-5.593,7.951-11.393a77.457,77.457,0,0,0,6.23-12.249h-52a71.8,71.8,0,0,1-23,16.756,66.691,66.691,0,0,1-28.151,6.019,67.946,67.946,0,0,1-23.643-4.087,69.445,69.445,0,0,1-20.2-11.394,67.961,67.961,0,0,1-15.27-17.4,70.063,70.063,0,0,1-8.806-21.711H409.5ZM304.416,832.8q16.533-10.83,37.613-10.848a68.023,68.023,0,0,1,30.516,7.022,70.5,70.5,0,0,1,24.064,19.345,67.347,67.347,0,0,1,4.087,6.39c1.288,2.267,2.651,4.521,4.087,6.787H279.263A70.042,70.042,0,0,1,304.416,832.8Zm385.539,14.948a113.4,113.4,0,0,0-24.671-36.534A118.307,118.307,0,0,0,628.812,786.7a113.71,113.71,0,0,0-88.811,0,114.171,114.171,0,0,0-60.7,61.043,112.479,112.479,0,0,0-9.017,44.7,110.8,110.8,0,0,0,9.029,44.5,114.9,114.9,0,0,0,60.822,60.809,114.7,114.7,0,0,0,82.322,2.651A121.934,121.934,0,0,0,654.7,982.939v20.831h44.276V892.444A112.48,112.48,0,0,0,689.955,847.746ZM649.11,919.48A71.761,71.761,0,0,1,611.931,956.9a69.237,69.237,0,0,1-54.6,0,71.76,71.76,0,0,1-37.179-37.415,66.606,66.606,0,0,1-5.586-27.037,67.661,67.661,0,0,1,5.586-27.457,71.632,71.632,0,0,1,37.179-37.414,69.1,69.1,0,0,1,54.6,0,71.632,71.632,0,0,1,37.179,37.414,67.874,67.874,0,0,1,5.585,27.457A66.818,66.818,0,0,1,649.11,919.48ZM849.756,899.33A88.539,88.539,0,0,0,840.307,889l-2.155-2.143a66.627,66.627,0,0,0-15.469-9.883q-10.756-6.02-21.277-10.96-10.551-4.941-18.7-9.674a26.273,26.273,0,0,1-8.595-5.585,15.029,15.029,0,0,1-4.3-8.175,7.149,7.149,0,0,1-.434-3.009q0-7.3,7.1-12.459t16.98-4.73a25.216,25.216,0,0,1,13.1,3.442,21.974,21.974,0,0,1,8.384,8.162l36.1-24.931a62.859,62.859,0,0,0-23.419-21.921,75.551,75.551,0,0,0-33.315-9.029,68.7,68.7,0,0,0-26.652,4.3,69.909,69.909,0,0,0-21.71,12.905,63.1,63.1,0,0,0-14.825,19.332,57.438,57.438,0,0,0-6.019,24.076A53.708,53.708,0,0,0,729.834,863a63.432,63.432,0,0,0,14.181,19.99l1.288,1.287v.435a82.593,82.593,0,0,0,13.759,9.672q7.3,4.087,14.824,7.727,7.523,3.661,14.837,6.887a144.953,144.953,0,0,1,13.326,6.662l-.434.421a17.169,17.169,0,0,1,3.864,1.722q8.174,4.737,11.183,12.038a3.454,3.454,0,0,1,.421,1.5,3.484,3.484,0,0,0,.433,1.511v.855a15.062,15.062,0,0,1,.434,4.3q0,9.883-8.385,16.546a28.585,28.585,0,0,1-19.556,6.242,28.2,28.2,0,0,1-17.2-5.374,24.09,24.09,0,0,1-9.449-13.116l-36.969,25.8a66.028,66.028,0,0,0,25.141,26.219,77.6,77.6,0,0,0,37.192,10.75,73.728,73.728,0,0,0,27.94-4.52,69.973,69.973,0,0,0,23.209-13.97,71.669,71.669,0,0,0,15.9-21.054,62.29,62.29,0,0,0,6.453-26.23,58.851,58.851,0,0,0-3.009-21.277,74.534,74.534,0,0,0-9.462-18.689m70.767,157.5h51.025l8.347-17.377,26.219-54.591,99.735-206.753h-51.162L982.051,928.992l-66.2-150.885H865.559l90.273,205.464Z" transform="translate(-228.547 -777.674)" fill="#f9f9f9"/></g><path d="M277.761,929.633l33.5-31.818c-20.361-26.293-53.44-41.562-95-41.562-68.277,0-115.352,46.652-115.352,115.785,0,68.289,46.654,114.931,114.51,114.931,44.523,0,78.458-16.967,98.4-45.8l-34.356-28.424c-13.574,17.823-34.776,26.726-61.069,26.726-36.473,0-61.924-27.146-61.924-67.854,0-39.869,25.451-67.015,61.924-67.015,25.017,0,44.957,9.337,59.373,25.03Zm177.066-73.8c-37.328.423-65.738,14.429-81.851,45.378V770.165H317.838V1084.85h55.137V973.313c0-37.327,22.478-64.9,59.794-65.317,31.383,0,50.468,19.518,50.468,51.323V1084.85H538.8V943.194c0-53.85-31.8-87.364-83.969-87.364Zm212.127,1.412c-71.671,0-120.021,46.233-120.021,114.932,0,69.145,48.35,115.787,120.021,115.787,70.829,0,119.179-46.642,119.179-115.787,0-68.7-48.35-114.932-119.179-114.932Zm0,47.088c37.315,0,63.609,27.99,63.609,68.687,0,40.72-26.293,68.723-63.609,68.723-38.17,0-64.463-28-64.463-68.723,0-40.7,26.293-68.687,64.463-68.687Zm260.341-48.077c-33.934,0-60.227,14.006-76.34,39.023V857.949H795.83v263.5c15.134-6.54,32.56-10.131,51.9-10.255,1.078-.012,2.155-.025,3.22-.012v-63.226c16.533,25.018,42.827,39.013,77.182,39.013,64.463,0,106.46-46.22,106.46-114.5,0-69.565-43.26-116.218-107.3-116.218ZM915,1039.472c-37.749,0-64.042-27.99-64.042-68.711,0-39.854,26.293-68.278,64.042-68.278,37.315,0,63.608,28.424,63.608,68.278C978.6,1011.063,952.312,1039.472,915,1039.472Zm322.884-173.089v46c-16.422-30.392-45.985-48.053-85-47.632-60.772,0-103.067,45.167-103.067,109.22,0,64.477,42.7,110.054,104.305,110.054,38.182,0,67.745-17.663,83.758-47.633v45.986h32.027V866.383Zm-77.6,190.131c-46,0-78.433-34.095-78.433-81.727s32.436-82.124,78.433-82.124c42.7,0,73.912,30.392,77.6,73.912V983c-3.691,43.532-34.9,73.516-77.6,73.516Zm416.588-191.358c-41.464.408-71.856,18.479-85.405,56.253-9.041-35.731-36.957-56.253-77.616-56.253-39,.408-68.166,16.423-82.532,50.1v-48.87h-31.618v215.992h31.618V976.025c0-46.814,26.689-79.25,71.039-80.489,37.774,0,59.955,23,59.955,62.01v124.828h32.436V976.025c0-46.814,25.872-79.25,70.631-80.489,37.365,0,59.955,23,59.955,62.01v124.828h32.027V949.337C1657.354,896.776,1627.383,865.156,1576.865,865.156Z" transform="translate(-100.906 -770.165)" fill="#f9f9f9" fill-rule="evenodd"/></g></g></svg>