<svg xmlns="http://www.w3.org/2000/svg" width="753.789" height="728.546" viewBox="0 0 753.789 728.546"><g transform="translate(0 0)"><g transform="translate(146.594 145.522)"><path d="M887.3,167.258a8.816,8.816,0,1,0,8.814,8.818A8.819,8.819,0,0,0,887.3,167.258Z" transform="translate(-624.59 -33.556)" fill="#d88e2a"/><path d="M864.254,259.4a8.821,8.821,0,1,0-12.473,0A8.829,8.829,0,0,0,864.254,259.4Z" transform="translate(-655.008 46.531)" fill="#d88e2a"/><path d="M856.29,456.389a8.883,8.883,0,0,0,12.538.073L911.9,414.028a26.846,26.846,0,0,0,6.324-27.569l9.265-8.935a26.488,26.488,0,0,1,18.5-7.473h124.207a65.669,65.669,0,0,0,49.172-22.119c3.2-3.613-13.07,15.72,81.066-96.791a35.537,35.537,0,0,0-54.075-46.123L1093.935,258.9a35.7,35.7,0,0,0-27.622-13.225H967.246a114.6,114.6,0,0,0-44.488-8.884c-42.767,0-80.127,19.745-100.182,56.8a26.545,26.545,0,0,0-23.76,7.363l-42.263,42.388a8.884,8.884,0,0,0-.014,12.529ZM923.1,255.256a95.722,95.722,0,0,1,38.521,8,9.028,9.028,0,0,0,3.6.771h100.6a17.378,17.378,0,0,1,17.313,18.147c-.432,9.367-8.627,16.515-18,16.515H993.9a8.949,8.949,0,0,0-8.323,5.228,9.239,9.239,0,0,0,8.352,13.123h72.8a34.613,34.613,0,0,0,34.355-39.188c49.461-50.844,56.433-57.986,56.732-58.343A17.333,17.333,0,1,1,1184.28,241.9l-77.719,92.909a60.331,60.331,0,0,1-42,16.891H946.033A43.589,43.589,0,0,0,915.6,363.992l-7.45,7.191L839.463,302.5C855.516,272.383,885.637,255.256,923.1,255.256ZM812.712,313.927a8.793,8.793,0,0,1,10.915-1.242c1.348.82,76.748,76.408,77.213,77.032a8.849,8.849,0,0,1-.81,11.436l-36.436,35.9-86.621-87.281Z" transform="translate(-753.961 -7.117)" fill="#d88e2a"/><path d="M835.127,289.268H1047.3a26.449,26.449,0,0,0,26.447-26.447V128.131a26.448,26.448,0,0,0-26.447-26.447H835.127a26.446,26.446,0,0,0-26.447,26.447V262.821A26.448,26.448,0,0,0,835.127,289.268Zm220.266-116.22H827.03V154.7h228.363Zm-8.819,97.87H835.845a8.814,8.814,0,0,1-8.815-8.814V189.359h228.363V262.1A8.819,8.819,0,0,1,1046.574,270.917ZM835.845,118h210.734a8.815,8.815,0,0,1,8.814,8.814v9.536H827.03V126.81A8.813,8.813,0,0,1,835.845,118Z" transform="translate(-697.11 -101.684)" fill="#d88e2a"/><path d="M941.119,166.684H904.4a8.953,8.953,0,0,0-8.321,5.216,9.237,9.237,0,0,0,8.339,13.135h36.73a8.943,8.943,0,0,0,8.319-5.224A9.239,9.239,0,0,0,941.119,166.684Z" transform="translate(-607.17 -34.152)" fill="#d88e2a"/></g><g transform="translate(0 -0.001)"><path d="M237.135,77.623c-17.447-36.651-116.849-154.644-206.368,0S75.56,363.045,75.56,363.045s375.914,303.33,502.477,256.214,59.625-199.72,59.625-199.72-83.9-187.633-297.01-111.8S254.581,114.272,237.135,77.623Z" transform="matrix(0.985, -0.174, 0.174, 0.985, 0, 113.8)" fill="#171c34" opacity="0.05"/><path d="M86.193,28.214c-6.342-13.322-42.472-56.209-75.01,0S27.464,131.958,27.464,131.958,164.1,242.212,210.1,225.087s21.672-72.594,21.672-72.594-30.5-68.2-107.957-40.638S92.535,41.535,86.193,28.214Z" transform="translate(643.507 250.962) rotate(180)" fill="#171c34" opacity="0.05"/></g></g></svg>