<svg xmlns="http://www.w3.org/2000/svg" width="753.789" height="728.546" viewBox="0 0 753.789 728.546"><g transform="translate(0 0)"><g transform="translate(0 -0.001)"><path d="M237.135,77.623c-17.447-36.651-116.849-154.644-206.368,0S75.56,363.045,75.56,363.045s375.914,303.33,502.477,256.214,59.625-199.72,59.625-199.72-83.9-187.633-297.01-111.8S254.581,114.272,237.135,77.623Z" transform="matrix(0.985, -0.174, 0.174, 0.985, 0, 113.8)" fill="#171c34" opacity="0.05"/><path d="M86.193,28.214c-6.342-13.322-42.472-56.209-75.01,0S27.464,131.958,27.464,131.958,164.1,242.212,210.1,225.087s21.672-72.594,21.672-72.594-30.5-68.2-107.957-40.638S92.535,41.535,86.193,28.214Z" transform="translate(643.507 250.962) rotate(180)" fill="#171c34" opacity="0.05"/></g><g transform="translate(139.136 115.707)"><path d="M1448.942,369.172l-156.909-51.516a31.667,31.667,0,0,0-42.482-32.2l-109.559-94.671a8,8,0,0,0-12.157,2.045l-12.317,21.393a47.9,47.9,0,0,0-58.269,20.952l-4,6.92a47.979,47.979,0,0,0,17.916,65.744l122.1,62.588a32.048,32.048,0,0,0,5.79,26.984l-25.183,43.617a8,8,0,0,0,9,11.724l25.054-6.718,6.712,25.055a7.994,7.994,0,0,0,6.669,5.854,8.513,8.513,0,0,0,1.046.073,8.016,8.016,0,0,0,6.937-4l34.483-59.733,84.073,54.309a47.982,47.982,0,0,0,65.579-17.6l4-6.914,35.987-62.339a7.993,7.993,0,0,0-4.439-11.6ZM1268.2,300.955a15.99,15.99,0,0,1,5.846,21.847L1238.06,385.18a15.994,15.994,0,0,1-27.7-16l35.987-62.331a15.992,15.992,0,0,1,21.894-5.9ZM1136.887,209.21l80.086,69.229-87.45-56.477ZM1063.9,274.373a31.835,31.835,0,0,1,3.2-24.278l4-6.918a31.987,31.987,0,0,1,43.352-11.916l114.7,74.069-29.175,50.542L1078.8,293.792A31.734,31.734,0,0,1,1063.9,274.373ZM1225.08,448.3l-3.772-14.124a8,8,0,0,0-9.8-5.65l-14.131,3.78,14.474-25.063a31.8,31.8,0,0,0,33.716-5.7l4.746,3.054Zm131.108,5.654L1254.961,388.56l29.98-51.928,106.89,54.813a31.99,31.99,0,0,1,11.712,43.7l-4,6.92A31.994,31.994,0,0,1,1356.188,453.952Zm65.114-49.579a47.759,47.759,0,0,0-21.809-27l-41.283-21.113,76.392,25.077Z" transform="translate(-1046.824 2.851)" fill="#d88e2a"/><path d="M1450.936,182.827l9.923-30.662a8,8,0,0,0-4-9.6l-28.669-14.65-14.66-28.7a7.993,7.993,0,0,0-9.6-4l-30.654,9.958-30.67-9.928a8,8,0,0,0-9.6,4l-14.644,28.672-28.7,14.658c-.128.071-.344-.852-.344-.852H1150.551a40.826,40.826,0,0,0-40.779,40.779V294.435a8.157,8.157,0,1,0,16.312.208V182.023a23.991,23.991,0,0,1,23.992-23.99h137.787l7.764,24.794-9.924,30.662a7.994,7.994,0,0,0,4,9.593l28.7,14.66,14.659,28.7a7.994,7.994,0,0,0,9.6,4l30.619-9.96,7.672,2.587V438.74a8.5,8.5,0,0,0,8.321,8,7.985,7.985,0,0,0,7.991-8v-170.5l6.688,2.159a7.991,7.991,0,0,0,9.595-4l14.658-28.7,28.7-14.66a8,8,0,0,0,4-9.6Zm-15.994,1.713,8.619,26.639-24.935,12.741a7.957,7.957,0,0,0-3.478,3.487l-12.759,24.934-26.647-8.619a7.881,7.881,0,0,0-4.916,0l-26.647,8.619-12.741-24.934a7.969,7.969,0,0,0-3.489-3.487l-24.933-12.741,8.619-26.639a7.82,7.82,0,0,0,0-4.924l-8.619-26.641,24.933-12.741a7.981,7.981,0,0,0,3.489-3.483l12.741-24.936,26.647,8.621a7.94,7.94,0,0,0,4.916,0l26.647-8.621,12.742,24.936a7.98,7.98,0,0,0,3.48,3.483l24.933,12.741-8.623,26.641a8.052,8.052,0,0,0,0,4.924Z" transform="translate(-981.424 -94.824)" fill="#d88e2a"/><path d="M1259.385,118.373a39.987,39.987,0,1,0,39.985,39.988A39.988,39.988,0,0,0,1259.385,118.373Zm0,63.978a23.991,23.991,0,1,1,23.989-23.99A23.992,23.992,0,0,1,1259.385,182.351Z" transform="translate(-867.528 -70.359)" fill="#d88e2a"/><path d="M1148.37,205.137h138.438a8.157,8.157,0,1,0,.21-16.312h-138.6a8.1,8.1,0,0,0-7.762,5.428A8.185,8.185,0,0,0,1148.37,205.137Z" transform="translate(-949.796 2.838)" fill="#d88e2a"/><path d="M1274.435,208.825H1160.3a8.1,8.1,0,0,0-7.763,5.428,8.186,8.186,0,0,0,7.713,10.884h113.974a8.157,8.157,0,1,0,.208-16.312Z" transform="translate(-937.45 23.617)" fill="#d88e2a"/><path d="M1245.072,227.825H1188.03a8.1,8.1,0,0,0-7.763,5.428,8.186,8.186,0,0,0,7.714,10.884h56.882a8.157,8.157,0,1,0,.208-16.312Z" transform="translate(-908.642 43.357)" fill="#d88e2a"/><path d="M1165.145,166.137h47.616a8.157,8.157,0,1,0,.209-16.312h-47.427c-11.219,0-21.33,7.457-23.969,18.361A24.511,24.511,0,0,0,1165.3,198.76h47.458a8.157,8.157,0,1,0,.209-16.311h-47.776a8.156,8.156,0,1,1-.049-16.312Z" transform="translate(-949.149 -37.681)" fill="#d88e2a"/></g></g></svg>