<svg xmlns="http://www.w3.org/2000/svg" width="753.789" height="728.546" viewBox="0 0 753.789 728.546"><g transform="translate(0 0)"><g transform="translate(157.937 115.707)"><g transform="translate(0 0)"><path d="M1557.312,179.251c0-23.207-15.977-43.864-38.738-48.389-31.286-6.221-58.835,17.427-58.835,47.343v7.022a8.273,8.273,0,0,0,4.824,7.693,8.543,8.543,0,0,0,12.146-7.715v-6.429c0-16.358,11.937-30.766,28.193-32.595,19.164-2.157,35.442,13.039,35.442,32.024v56.4H1419.436V387.331h178.18V234.6h-40.3Zm23.333,191.111H1436.4V249.454h144.241Z" transform="translate(-1291.343 -64.56)" fill="#d88e2a"/><path d="M1448.724,216.94c-7.539,20.914,4.9,40.445,23.214,45.206v18.2a8.275,8.275,0,0,0,4.824,7.693,8.543,8.543,0,0,0,12.147-7.715V262.146a33.9,33.9,0,0,0,25.453-32.733c0-22.781-22.546-40.384-46.5-31.669A32.1,32.1,0,0,0,1448.724,216.94Zm32.059,29.226a16.114,16.114,0,1,1,16.116-16.114A16.13,16.13,0,0,1,1480.782,246.166Z" transform="translate(-1263.241 3.606)" fill="#d88e2a"/><path d="M1574.156,97.835c-119.955,0-217.543,97.588-217.543,217.544,0,113.678,87.67,207.221,198.939,216.7l-35.435,35.435A8.056,8.056,0,1,0,1531.51,578.9l48.333-48.333a8.079,8.079,0,0,0,0-11.41l-48.333-48.335a8.056,8.056,0,1,0-11.393,11.394l33.548,33.549c-101.478-10.3-180.938-96.235-180.938-200.388,0-111.068,90.36-201.428,201.428-201.428s201.43,90.36,201.43,201.428a200.184,200.184,0,0,1-58.318,141.75,8.059,8.059,0,0,0,11.449,11.345A216.246,216.246,0,0,0,1791.7,315.379C1791.7,195.423,1694.111,97.835,1574.156,97.835Z" transform="translate(-1356.613 -97.835)" fill="#d88e2a"/></g></g><g transform="translate(0 -0.001)"><path d="M237.135,77.623c-17.447-36.651-116.849-154.644-206.368,0S75.56,363.045,75.56,363.045s375.914,303.33,502.477,256.214,59.625-199.72,59.625-199.72-83.9-187.633-297.01-111.8S254.581,114.272,237.135,77.623Z" transform="matrix(0.985, -0.174, 0.174, 0.985, 0, 113.8)" fill="#171c34" opacity="0.05"/><path d="M86.193,28.214c-6.342-13.322-42.472-56.209-75.01,0S27.464,131.958,27.464,131.958,164.1,242.212,210.1,225.087s21.672-72.594,21.672-72.594-30.5-68.2-107.957-40.638S92.535,41.535,86.193,28.214Z" transform="translate(643.507 250.962) rotate(180)" fill="#171c34" opacity="0.05"/></g></g></svg>