<svg xmlns="http://www.w3.org/2000/svg" xmlns:xlink="http://www.w3.org/1999/xlink" width="311.023" height="117.518" viewBox="0 0 311.023 117.518">
  <defs>
    <filter id="Path_13" x="0" y="0" width="311.023" height="117.518" filterUnits="userSpaceOnUse">
      <feOffset dx="3" dy="12" input="SourceAlpha"/>
      <feGaussianBlur stdDeviation="6" result="blur"/>
      <feFlood flood-opacity="0.161"/>
      <feComposite operator="in" in2="blur"/>
      <feComposite in="SourceGraphic"/>
    </filter>
  </defs>
  <g id="Group_7498" data-name="Group 7498" transform="translate(-1069.062 -11518)">
    <g transform="matrix(1, 0, 0, 1, 1069.06, 11518)" filter="url(#Path_13)">
      <path id="Path_13-2" data-name="Path 13" d="M469.318,630.942H216.635a11.169,11.169,0,0,1-11.173-11.167V560.591a11.167,11.167,0,0,1,11.173-11.167H469.318a11.166,11.166,0,0,1,11.167,11.167v59.184a11.168,11.168,0,0,1-11.167,11.167" transform="translate(-190.46 -543.42)" fill="#fff"/>
    </g>
    <path id="Path_14" data-name="Path 14" d="M257.283,593.49c-.9,4.242-5.1,10.045-7.487,12.234-5.117,4.687-8.936-1.1-15.07-.093-6.924,1.149-7.694,4.856-13.347-1.906-6.044-7.231-10.563-20.25-5.848-29.318,6.392-12.31,17.664-5.478,19.529-5.217,2.177.307,5.159-1.416,7.406-1.984,5.6-1.416,12.183,1.5,13.413,5.265-6.777,3.536-7.908,13.9-1.016,19.324a22.763,22.763,0,0,1,2.42,1.7m-21.8-27.271c6.473.295,10.806-5.722,10.752-12.316-5.842.316-11.576,5.9-10.752,12.316m51.727,1.482,1.142,3.569h2.459l-4.083-12.583H283.8l-4.032,12.583h2.369l1.085-3.569Zm-3.623-1.732.974-3.1c.226-.749.412-1.627.6-2.357h.039c.186.73.391,1.591.634,2.357l.989,3.1Zm7.733-3.789,3.379,9.089h2.258l3.473-9.089h-2.423l-1.44,4.609c-.244.821-.451,1.531-.619,2.279H295.9c-.168-.749-.352-1.479-.613-2.279l-1.476-4.609Zm17.959,9.089a14.544,14.544,0,0,1-.132-2.183V565.8c0-1.979-.836-3.825-3.749-3.825a6.512,6.512,0,0,0-3.286.8l.448,1.5a4.766,4.766,0,0,1,2.445-.677c1.606,0,1.852.992,1.852,1.585v.153c-3.365-.018-5.4,1.14-5.4,3.434a2.7,2.7,0,0,0,2.853,2.7A3.372,3.372,0,0,0,307,570.26h.057l.147,1.01Zm-2.369-3.193a1.625,1.625,0,0,1-.075.505,1.859,1.859,0,0,1-1.8,1.251,1.2,1.2,0,0,1-1.3-1.311c0-1.38,1.548-1.732,3.172-1.7Zm7.484-8.437a1.287,1.287,0,0,0-2.574,0,1.288,1.288,0,0,0,2.574,0m-2.444,11.63h2.315v-9.089h-2.315Zm5.156,0h2.312V558.02h-2.312Zm12.354,0a15.455,15.455,0,0,1-.129-2.183V565.8c0-1.979-.839-3.825-3.749-3.825a6.516,6.516,0,0,0-3.289.8l.448,1.5a4.775,4.775,0,0,1,2.444-.677c1.609,0,1.852.992,1.852,1.585v.153c-3.361-.018-5.394,1.14-5.394,3.434a2.692,2.692,0,0,0,2.85,2.7,3.367,3.367,0,0,0,2.691-1.212h.057l.147,1.01Zm-2.369-3.193a1.623,1.623,0,0,1-.075.505,1.854,1.854,0,0,1-1.789,1.251,1.205,1.205,0,0,1-1.308-1.311c0-1.38,1.548-1.732,3.172-1.7Zm6.924,3.193.114-1.362h.036a3.131,3.131,0,0,0,2.874,1.566c2.054,0,4.128-1.621,4.128-4.892.018-2.76-1.57-4.606-3.792-4.606a3.288,3.288,0,0,0-2.91,1.452h-.039v-5.412h-2.291v10.7c0,.932-.045,1.939-.078,2.556Zm.412-5.229a2.851,2.851,0,0,1,.075-.6,2.153,2.153,0,0,1,2.033-1.681c1.534,0,2.3,1.308,2.3,2.916,0,1.825-.881,2.983-2.315,2.983a2.127,2.127,0,0,1-2.039-1.6,2.649,2.649,0,0,1-.054-.544Zm9,5.229h2.315V558.02h-2.315Zm12.881-3.9a5.446,5.446,0,0,0,.078-.977c0-1.993-.974-4.417-3.924-4.417-2.91,0-4.444,2.369-4.444,4.889a4.3,4.3,0,0,0,4.687,4.594,8.564,8.564,0,0,0,3.175-.562l-.337-1.588a6.849,6.849,0,0,1-2.523.409c-1.455,0-2.742-.71-2.8-2.348Zm-6.083-1.609a2.244,2.244,0,0,1,2.108-2.222,1.959,1.959,0,0,1,1.885,2.222Zm21.26.878a4.36,4.36,0,0,0-4.516-4.666,4.49,4.49,0,0,0-4.7,4.82,4.391,4.391,0,0,0,4.552,4.682,4.5,4.5,0,0,0,4.666-4.835m-6.849.093c0-1.51.652-3.076,2.279-3.076,1.566,0,2.2,1.621,2.2,3.037,0,1.831-.914,3.121-2.222,3.121-1.4,0-2.258-1.326-2.258-3.082m9.113,4.537h2.312v-5.34a2.354,2.354,0,0,1,.093-.748,1.928,1.928,0,0,1,1.792-1.341c1.251,0,1.738.989,1.738,2.3v5.132h2.3v-5.4c0-2.872-1.645-3.9-3.229-3.9a3.283,3.283,0,0,0-2.9,1.563H375.8l-.111-1.362h-2.017c.06.788.078,1.663.078,2.706Zm15.68-11.146v2.054h-1.308V563.9h1.308v4.276a3.641,3.641,0,0,0,.707,2.544,2.678,2.678,0,0,0,1.978.743,5,5,0,0,0,1.663-.222l-.033-1.753a3.532,3.532,0,0,1-.9.108c-.881,0-1.179-.58-1.179-1.681V563.9h2.183v-1.717H391.67v-2.595Zm6.533,11.143h2.315v-5.43a2,2,0,0,1,.093-.691,1.87,1.87,0,0,1,1.774-1.284c1.269,0,1.756.986,1.756,2.309v5.1h2.3v-5.355c0-2.908-1.624-3.939-3.178-3.939a3.1,3.1,0,0,0-1.564.412,3.063,3.063,0,0,0-1.139,1.044h-.039v-5.412h-2.315Zm18.765-3.9a5.817,5.817,0,0,0,.075-.977c0-1.993-.971-4.417-3.924-4.417-2.911,0-4.444,2.369-4.444,4.889a4.3,4.3,0,0,0,4.69,4.594,8.558,8.558,0,0,0,3.172-.562l-.337-1.588a6.838,6.838,0,0,1-2.523.409c-1.455,0-2.742-.71-2.8-2.348Zm-6.086-1.609a2.246,2.246,0,0,1,2.108-2.222,1.957,1.957,0,0,1,1.885,2.222ZM289.722,595.306l2.267,7.1h4.91l-8.145-25.07h-5.842l-8.034,25.07H279.6l2.159-7.1Zm-7.219-3.461,1.933-6.173c.451-1.485.821-3.235,1.191-4.687h.075c.37,1.452.782,3.163,1.263,4.687l1.972,6.173Zm16.774,17.932h4.573V600.4h.075a5.954,5.954,0,0,0,5.1,2.414c4.128,0,8.256-3.16,8.256-9.7,0-5.656-3.458-9.231-7.625-9.231a7.064,7.064,0,0,0-6.212,3.2h-.075l-.223-2.787h-4.017c.078,1.708.15,3.644.15,6.026Zm4.573-17.743a4.2,4.2,0,0,1,.186-1.158,4.265,4.265,0,0,1,4.1-3.383c2.935,0,4.5,2.607,4.5,5.8,0,3.569-1.711,5.989-4.612,5.989a4.132,4.132,0,0,1-4.014-3.2,4.623,4.623,0,0,1-.153-1.266Zm16.441,17.743h4.576V600.4h.075a5.946,5.946,0,0,0,5.1,2.414c4.122,0,8.256-3.16,8.256-9.7,0-5.656-3.461-9.231-7.625-9.231a7.057,7.057,0,0,0-6.212,3.2h-.075l-.223-2.787h-4.02c.075,1.708.15,3.644.15,6.026Zm4.576-17.743a4.713,4.713,0,0,1,4.279-4.54c2.938,0,4.5,2.607,4.5,5.8,0,3.569-1.711,5.989-4.612,5.989a4.136,4.136,0,0,1-4.017-3.2,4.742,4.742,0,0,1-.147-1.266Zm22.466,9.182a14.844,14.844,0,0,0,6.765,1.563c6.473,0,9.522-3.5,9.522-7.514,0-3.605-2.12-5.8-6.47-7.436-3.347-1.3-4.8-2.195-4.8-4.131,0-1.449,1.263-3.013,4.167-3.013a10.569,10.569,0,0,1,4.982,1.194l1.118-3.686a13.286,13.286,0,0,0-6.028-1.263c-5.43,0-8.852,3.124-8.852,7.219,0,3.605,2.64,5.8,6.771,7.288,3.2,1.152,4.462,2.267,4.462,4.161,0,2.048-1.639,3.425-4.576,3.425a12.687,12.687,0,0,1-6.062-1.6ZM367.452,580.2v4.1h-2.6v3.422h2.6v8.512c0,2.387.445,4.023,1.413,5.063a5.31,5.31,0,0,0,3.945,1.485,10.135,10.135,0,0,0,3.31-.442l-.075-3.5a6.913,6.913,0,0,1-1.786.219c-1.744,0-2.342-1.148-2.342-3.346V587.72h4.351V584.3h-4.351v-5.171Zm28.531,12.983c0-5.505-3.611-9.3-9.005-9.3-5.466,0-9.372,3.644-9.372,9.6,0,5.8,3.945,9.333,9.077,9.333,4.612,0,9.3-2.974,9.3-9.631m-13.65.184c0-3.013,1.3-6.134,4.537-6.134,3.124,0,4.387,3.235,4.387,6.059,0,3.647-1.822,6.215-4.426,6.215-2.79,0-4.5-2.643-4.5-6.14m16.66,9.041h4.576v-9.375a7.708,7.708,0,0,1,.15-1.41,4.033,4.033,0,0,1,4.089-3.464,6.526,6.526,0,0,1,1.341.147V584a4.763,4.763,0,0,0-1.079-.111,5.4,5.4,0,0,0-4.949,3.873h-.147l-.147-3.464h-3.981c.111,1.639.147,3.388.147,5.842Zm27.526-7.772a11.224,11.224,0,0,0,.147-1.937c0-3.981-1.933-8.816-7.812-8.816-5.8,0-8.855,4.724-8.855,9.745,0,5.541,3.464,9.149,9.339,9.149a17.1,17.1,0,0,0,6.326-1.112l-.671-3.163a13.629,13.629,0,0,1-5.021.821c-2.9,0-5.469-1.413-5.583-4.687Zm-12.129-3.2c.189-1.861,1.38-4.426,4.2-4.426,3.052,0,3.8,2.751,3.758,4.426Z" transform="translate(897.874 10983.566)" fill="#666" fill-rule="evenodd"/>
  </g>
</svg>
