<svg xmlns="http://www.w3.org/2000/svg" width="787.431" height="2601.99" viewBox="0 0 787.431 2601.99"><path d="M581.09,2761.954c-25.628-46.547-40.4-95.075-44.811-147.024-10.708-125.906,22.158-242.943,69.249-357.548,42.333-103.007,93.192-202.446,128.685-308.325,41.836-124.769,69.4-252.064,79.212-383.722,10.359-139.739-1.041-276.65-37.277-411.729-18.589-69.347-52-132.154-86.45-194.462C634.922,860.1,570.879,766.116,528.645,660.383c-29.4-73.513-49.273-148.808-47.29-229.16,12.144-.348,11.2,7.831,12.442,13.383C514.766,537.5,556.751,620.727,611.08,697.958c51.205,72.768,103.6,144.644,155.4,216.919,78.865,110.094,127.195,232.729,148.907,365.974,43.918,269.959.447,527.377-111.93,774.83-48.825,107.519-112.423,207.352-162.589,314.175-47.735,101.668-76.884,207.053-68.109,320.519C574.645,2714.27,578.263,2738.061,581.09,2761.954Zm480.879-1145.265c8.574,97.6,3.172,194.908-12.493,291.175-29.3,180.087-107.122,342.281-191.886,501.5-88.681,166.554-164.026,337.273-165.513,530.895-.2,29.741,1.932,59.484,3.123,92.944,13.284-8.576,12.243-15.815,13.78-21.959,35.938-142.565,91.6-277.444,164.523-404.69,57.749-100.778,119.415-199.321,166.8-305.6,74.553-167.3,114.258-340.349,83.328-524.748-10.707-63.8-26.47-125.758-55.171-188.02C1058.2,1600.132,1061.275,1608.658,1061.969,1616.689ZM447.4,1205.853c58.046,71.38,103.947,148.216,118.72,241.157,15.515,97.157-7.734,187.672-42.283,276.85-30.039,77.724-64.292,153.815-89.673,233.275-21.76,68.109-39.259,137.358-36.632,209.236,1.637,44.762,2.083,91.208,29.594,132.551,8.03-11.6,8.426-22.953,8.972-33.759,4.411-84.814,32.022-162.936,67.266-239.026,43.274-93.438,95.274-182.616,133.393-278.584,36.186-91.109,57.5-184.3,40.945-282.449-20.224-120.058-82.832-215.183-177.214-290.433-45.653-36.383-96.412-63.2-153.716-78.318C380.382,1133.382,416.17,1167.435,447.4,1205.853Z" transform="translate(-346.772 -431.212)" fill="#fefefe"/></svg>