<svg xmlns="http://www.w3.org/2000/svg" xmlns:xlink="http://www.w3.org/1999/xlink" width="4648.631" height="688.814" viewBox="0 0 4648.631 688.814"><defs><filter id="a" x="0" y="0" width="2238.443" height="688.814" filterUnits="userSpaceOnUse"><feOffset dx="3" dy="12" input="SourceAlpha"/><feGaussianBlur stdDeviation="6" result="b"/><feFlood flood-opacity="0.161"/><feComposite operator="in" in2="b"/><feComposite in="SourceGraphic"/></filter><filter id="c" x="2410.163" y="0" width="2238.468" height="688.814" filterUnits="userSpaceOnUse"><feOffset dx="3" dy="12" input="SourceAlpha"/><feGaussianBlur stdDeviation="6" result="d"/><feFlood flood-opacity="0.161"/><feComposite operator="in" in2="d"/><feComposite in="SourceGraphic"/></filter></defs><g transform="translate(15 5.999)"><g transform="matrix(1, 0, 0, 1, -15, -6)" filter="url(#a)"><path d="M2318.478,1202.238H294.936a89.442,89.442,0,0,1-89.475-89.426V638.852a89.428,89.428,0,0,1,89.475-89.428H2318.478a89.418,89.418,0,0,1,89.428,89.428v473.96a89.432,89.432,0,0,1-89.428,89.426" transform="translate(-190.46 -543.42)" fill="#fff"/></g><path d="M563.62,870.922c-7.176,33.975-40.813,80.446-59.955,97.975-40.981,37.538-71.561-8.839-120.68-.747-55.452,9.2-61.616,38.888-106.884-15.265-48.4-57.908-84.587-162.167-46.833-234.787,51.191-98.578,141.46-43.872,156.389-41.778,17.432,2.457,41.318-11.34,59.305-15.891,44.833-11.341,97.565,12.015,107.413,42.161C498.1,730.9,489.049,813.927,544.237,857.34c6.983,5.515,12.882,7.152,19.383,13.582M389.052,652.53c51.841,2.36,86.537-45.821,86.1-98.625-46.785,2.527-92.7,47.266-86.1,98.625M803.3,664.4l9.149,28.581h19.7l-32.7-100.769h-23.5L743.653,692.981h18.974l8.692-28.581Zm-29.014-13.868,7.8-24.8c1.806-6,3.3-13.027,4.768-18.877h.313c1.493,5.85,3.131,12.737,5.081,18.877l7.922,24.8Zm61.929-30.341,27.064,72.79h18.083l27.81-72.79H889.76L878.227,657.1c-1.95,6.573-3.611,12.257-4.96,18.251h-.433c-1.348-5.994-2.817-11.846-4.911-18.251L856.1,620.191Zm143.819,72.79A116.443,116.443,0,0,1,978.97,675.5V649.184c0-15.845-6.694-30.628-30.025-30.628-11.51,0-20.924,3.082-26.318,6.405l3.588,11.991a38.175,38.175,0,0,1,19.576-5.418c12.858,0,14.833,7.946,14.833,12.691v1.227c-26.944-.145-43.221,9.125-43.221,27.5,0,11.076,8.235,21.646,22.851,21.646,9.438,0,17.047-4,21.55-9.7h.457l1.18,8.09ZM961.056,667.41a13.02,13.02,0,0,1-.6,4.046,14.889,14.889,0,0,1-14.375,10.017c-5.827,0-10.426-3.3-10.426-10.5,0-11.052,12.4-13.87,25.4-13.58Zm59.931-67.564c-.12-5.705-4.046-10.017-10.305-10.017-6.141,0-10.306,4.312-10.306,10.017,0,5.515,4.046,9.873,10.185,9.873,6.38,0,10.426-4.358,10.426-9.873m-19.575,93.136h18.54v-72.79h-18.54Zm41.294,0h18.515V586.869h-18.515Zm98.937,0a123.8,123.8,0,0,1-1.034-17.482V649.184c0-15.845-6.719-30.628-30.026-30.628-11.534,0-20.948,3.082-26.342,6.405l3.588,11.991a38.244,38.244,0,0,1,19.576-5.418c12.882,0,14.832,7.946,14.832,12.691v1.227c-26.919-.145-43.2,9.125-43.2,27.5,0,11.076,8.21,21.646,22.826,21.646,9.439,0,17.072-4,21.55-9.7h.458l1.18,8.09ZM1122.67,667.41a13,13,0,0,1-.6,4.046,14.847,14.847,0,0,1-14.327,10.017c-5.875,0-10.474-3.3-10.474-10.5,0-11.052,12.4-13.87,25.4-13.58Zm55.452,25.572.915-10.907h.289c5.225,8.958,13.628,12.544,23.019,12.544,16.446,0,33.06-12.979,33.06-39.175.144-22.1-12.569-36.888-30.364-36.888-10.907,0-18.829,4.622-23.307,11.631h-.313V586.843h-18.347v85.671c0,7.465-.361,15.531-.626,20.467Zm3.3-41.873a22.819,22.819,0,0,1,.6-4.767c2.1-8.065,8.838-13.459,16.277-13.459,12.281,0,18.42,10.474,18.42,23.356,0,14.616-7.054,23.885-18.539,23.885a17.035,17.035,0,0,1-16.326-12.835,21.2,21.2,0,0,1-.433-4.356Zm72.066,41.873h18.541V586.869h-18.541Zm103.152-31.229a43.564,43.564,0,0,0,.626-7.826c0-15.962-7.8-35.371-31.422-35.371-23.308,0-35.589,18.974-35.589,39.152,0,22.272,13.918,36.791,37.538,36.791a68.582,68.582,0,0,0,25.427-4.5l-2.7-12.713c-5.538,2.094-11.678,3.273-20.2,3.273-11.654,0-21.959-5.683-22.393-18.8Zm-48.711-12.882c.722-7.464,5.514-17.794,16.879-17.794,12.256,0,15.218,11.1,15.1,17.794Zm170.257,7.031c0-22.128-14.495-37.369-36.165-37.369-21.96,0-37.659,14.663-37.659,38.6,0,23.309,15.819,37.491,36.454,37.491,18.541,0,37.369-11.967,37.369-38.718m-54.85.747c0-12.089,5.225-24.633,18.251-24.633,12.544,0,17.625,12.978,17.625,24.319,0,14.665-7.319,24.992-17.793,24.992-11.221,0-18.083-10.616-18.083-24.678m72.982,36.333h18.516V650.218a18.854,18.854,0,0,1,.747-5.994c1.95-5.515,7.03-10.74,14.351-10.74,10.016,0,13.917,7.923,13.917,18.4v41.1h18.4V649.76c0-23-13.171-31.205-25.86-31.205-12.112,0-20.058,6.863-23.188,12.521h-.457l-.892-10.908h-16.156c.481,6.31.626,13.316.626,21.671Zm125.569-89.259v16.446h-10.474v13.749h10.474v34.24c0,9.582,1.782,16.18,5.658,20.371,3.443,3.708,9.149,5.946,15.844,5.946,5.874,0,10.618-.721,13.314-1.78l-.264-14.037a28.3,28.3,0,0,1-7.176.865c-7.054,0-9.439-4.648-9.439-13.46V633.917H1657.3V620.168h-17.482V599.39Zm52.322,89.235h18.541V649.471a16.052,16.052,0,0,1,.747-5.536,14.974,14.974,0,0,1,14.206-10.281c10.161,0,14.062,7.9,14.062,18.492v40.813h18.4V650.073c0-23.284-13-31.542-25.45-31.542a24.827,24.827,0,0,0-12.521,3.3,24.529,24.529,0,0,0-9.125,8.357h-.313V586.843h-18.541Zm150.273-31.205a46.578,46.578,0,0,0,.6-7.826c0-15.962-7.777-35.371-31.421-35.371-23.309,0-35.588,18.974-35.588,39.152,0,22.272,13.917,36.791,37.563,36.791a68.535,68.535,0,0,0,25.4-4.5l-2.7-12.713c-5.538,2.094-11.654,3.273-20.2,3.273-11.654,0-21.96-5.683-22.394-18.8Zm-48.735-12.882c.747-7.464,5.514-17.794,16.879-17.794,12.256,0,15.241,11.1,15.1,17.794ZM823.4,885.465l18.155,56.9h39.32L815.647,741.595H768.863L704.526,942.36h37.827l17.288-56.9Zm-57.812-27.714,15.483-49.434c3.612-11.894,6.573-25.909,9.535-37.537h.6c2.962,11.628,6.26,25.33,10.113,37.537l15.8,49.434Zm134.333,143.6h36.623V926.278h.6c7.464,11.605,22.633,19.335,40.812,19.335,33.06,0,66.119-25.307,66.119-77.7,0-45.292-27.689-73.922-61.062-73.922-22.032,0-39.007,9.271-49.746,25.644h-.6l-1.782-22.322H898.717c.626,13.678,1.2,29.182,1.2,48.254Zm36.623-142.086A33.6,33.6,0,0,1,938.037,850c3.564-16.06,17.578-27.088,32.795-27.088,23.5,0,36.022,20.876,36.022,46.471,0,28.58-13.7,47.964-36.937,47.964a33.091,33.091,0,0,1-32.144-25.618,37.016,37.016,0,0,1-1.228-10.138Zm131.66,142.086h36.647V926.278h.6c7.44,11.605,22.609,19.335,40.813,19.335,33.011,0,66.119-25.307,66.119-77.7,0-45.292-27.714-73.922-61.062-73.922-22.056,0-39.032,9.271-49.746,25.644h-.6l-1.781-22.322H1067c.6,13.678,1.2,29.182,1.2,48.254Zm36.647-142.086A34.475,34.475,0,0,1,1106.32,850c3.588-16.06,17.553-27.088,32.795-27.088,23.525,0,36.021,20.876,36.021,46.471,0,28.58-13.7,47.964-36.936,47.964a33.118,33.118,0,0,1-32.169-25.618,37.99,37.99,0,0,1-1.179-10.138ZM1284.765,932.8c11,6.573,33.06,12.519,54.176,12.519,51.841,0,76.256-28.027,76.256-60.171,0-28.871-16.975-46.472-51.816-59.547-26.8-10.449-38.429-17.576-38.429-33.083,0-11.607,10.112-24.126,33.372-24.126a84.64,84.64,0,0,1,39.9,9.559l8.957-29.521c-10.451-5.345-26.511-10.113-48.277-10.113-43.485,0-70.886,25.017-70.886,57.812,0,28.871,21.141,46.471,54.224,58.366,25.619,9.222,35.733,18.156,35.733,33.324,0,16.4-13.124,27.427-36.647,27.427a101.6,101.6,0,0,1-48.542-12.81Zm161.108-168.285v32.794h-20.828v27.4h20.828V892.88c0,19.118,3.563,32.218,11.317,40.549,6.886,7.44,18.18,11.894,31.591,11.894,11.605,0,21.141-1.469,26.51-3.539l-.6-28a55.347,55.347,0,0,1-14.3,1.757c-13.966,0-18.757-9.2-18.757-26.8V824.715h34.842v-27.4h-34.842V755.9Zm228.479,103.97c0-44.086-28.917-74.473-72.115-74.473-43.774,0-75.052,29.183-75.052,76.859,0,46.447,31.592,74.739,72.693,74.739,36.936,0,74.474-23.813,74.474-77.125m-109.315,1.47c0-24.126,10.4-49.12,36.334-49.12,25.016,0,35.13,25.907,35.13,48.518,0,29.208-14.592,49.771-35.444,49.771-22.345,0-36.021-21.167-36.021-49.169m133.417,72.4H1735.1V867.285a61.741,61.741,0,0,1,1.2-11.292c3.275-16.4,15.169-27.739,32.746-27.739a52.247,52.247,0,0,1,10.739,1.179V794.905a38.171,38.171,0,0,0-8.643-.89c-15.507,0-32.482,10.427-39.633,31.014h-1.18l-1.18-27.74h-31.88c.891,13.123,1.179,27.136,1.179,46.786Zm220.437-62.241a89.919,89.919,0,0,0,1.18-15.508c0-31.878-15.483-70.6-62.556-70.6-46.447,0-70.909,37.827-70.909,78.039,0,44.377,27.737,73.269,74.786,73.269,20.852,0,38.14-3.852,50.661-8.909l-5.37-25.332c-11.028,4.168-23.259,6.575-40.211,6.575-23.236,0-43.8-11.316-44.713-37.539ZM1821.76,854.5c1.517-14.905,11.052-35.443,33.662-35.443,24.438,0,30.411,22.032,30.1,35.443Z" transform="translate(-18.295 -446.032)" fill="#666" fill-rule="evenodd"/><g transform="matrix(1, 0, 0, 1, -15, -6)" filter="url(#c)"><path d="M2429.465,1202.238H405.949a89.458,89.458,0,0,1-89.475-89.426V638.852a89.443,89.443,0,0,1,89.475-89.428H2429.465a89.443,89.443,0,0,1,89.476,89.428v473.96a89.458,89.458,0,0,1-89.476,89.426" transform="translate(2108.69 -543.42)" fill="#fff"/></g><g transform="translate(2590.546 105.583)"><path d="M338.81,962.313c-7.705-6.5-11.967-15.023-14.495-24.632-.458-1.853-.458-355.664-.048-357.4,2.5-10.137,7.2-18.925,15.217-25.836,2.264,2.213,4.455,4.479,6.742,6.6q53.6,49.407,107.172,98.744c16.614,15.338,33.253,30.555,49.843,45.869,15.964,14.713,31.831,29.52,47.771,44.28-1.3,1.349-2.552,2.7-3.876,4Q442.973,858.139,338.81,962.313" transform="translate(-323.965 -539.016)" fill="#478cca"/><path d="M536.138,764.736c-15.94-14.76-31.807-29.544-47.771-44.281-16.591-15.337-33.228-30.555-49.843-45.869q-53.6-49.336-107.172-98.721c-2.288-2.143-4.479-4.382-6.742-6.622,4.816-5.226,10.811-8.62,17.288-11.244,3.973-1.613,8.162-2.793,12.256-4.189h17.167c35.276,12.519,65.976,33.9,98.7,51.406C517.67,630.643,564.791,657.275,612.1,683.4c1.277.676,2.456,1.519,3.636,2.218q-28.966,28.967-57.956,57.859c-7.079,7.079-14.062,14.23-21.093,21.335a.884.884,0,0,1-.553-.073" transform="translate(-309.092 -553.809)" fill="#4dad4a"/><path d="M536.784,562.569a.908.908,0,0,0,.554.074c.964,1.034,1.9,2.117,2.961,3.1,12.425,11.415,24.9,22.732,37.3,34.119q27.414,25.355,54.682,50.733c-13.291,7.442-26.606,14.954-39.994,22.3C525.058,710,457.855,747.275,390.435,784.067c-21.212,11.582-42.088,9.318-61.568-4.985a14.95,14.95,0,0,1-4.286-4.141q104.2-104.164,208.326-208.351c1.324-1.323,2.576-2.672,3.876-4.021" transform="translate(-309.737 -351.642)" fill="#ed4339"/><path d="M428.383,726.434c-18.227-16.9-93.978-86.9-94.965-87.956,7.007-7.106,14.014-14.257,21.069-21.336q28.965-28.967,57.981-57.859c18.42,10.113,69.321,37.876,76.28,41.9,17.625,10.209,27.859,25.185,27.859,45.965.025,20.828-10.065,35.927-27.834,46.038-19.07,10.883-38.405,21.358-57.668,32.047a26.922,26.922,0,0,1-2.72,1.2" transform="translate(-105.817 -427.477)" fill="#f7bd19"/><path d="M388.852,640.281a44.916,44.916,0,0,1,0-78.015,44.676,44.676,0,0,1,22.585-5.9,47.121,47.121,0,0,1,18.131,3.467,38.868,38.868,0,0,1,14.037,9.7l-9.366,9.414a28.17,28.17,0,0,0-10.041-7.222,33.088,33.088,0,0,0-28.364,1.422A29.906,29.906,0,0,0,384.3,584.468a32.214,32.214,0,0,0-4.334,16.783,32.629,32.629,0,0,0,4.334,16.828,30.359,30.359,0,0,0,11.534,11.295,31.474,31.474,0,0,0,37.659-4.456,23.458,23.458,0,0,0,4.5-6.6,28.255,28.255,0,0,0,2.48-8.644H411.341V597.661h41.872a40.872,40.872,0,0,1,.577,6.936,48.486,48.486,0,0,1-2.528,15.676,32.324,32.324,0,0,1-8.018,13.027q-12.135,12.858-31.808,12.857a45.154,45.154,0,0,1-22.585-5.875m80.422,3.949h52.2V631.4H482.734V607.606h34.938V594.893H482.734V571.151h38.742V558.268h-52.2Zm86.321,0H569.03V571.151h24.007V558.268H531.588v12.883h24.006Zm78.5,0h13.436V558.245H634.089Zm50.4,0h13.46V571.151h23.981V558.268H660.5v12.883h23.982Zm93.664-4.022a46.392,46.392,0,0,0,45.364,0,43.172,43.172,0,0,0,16.035-16.277,46.828,46.828,0,0,0-.072-45.292,44.444,44.444,0,0,0-16.035-16.276,44.536,44.536,0,0,0-61.328,16.276,46.745,46.745,0,0,0,0,45.292,42.657,42.657,0,0,0,16.036,16.277m38.284-10.979a31.941,31.941,0,0,1-31.205,0,29.928,29.928,0,0,1-11.221-11.365,35.4,35.4,0,0,1,0-33.229A29.847,29.847,0,0,1,785.23,573.3a31.777,31.777,0,0,1,31.205,0,29.5,29.5,0,0,1,11.148,11.34,35.951,35.951,0,0,1,0,33.229,29.581,29.581,0,0,1-11.148,11.365m44.281,15h13.363V595.013l-.746-16.566h.746l40.307,65.783h14.037V558.268H915.084v45.966l.745,16.591h-.745L876.7,558.268H860.715ZM391.38,839.409a94.239,94.239,0,0,0,46.639,11.942q20.732,0,37.49-6.788a77.9,77.9,0,0,0,28.532-19.576,71.965,71.965,0,0,0,16.133-26.342,97.428,97.428,0,0,0,5.3-32.531,65.174,65.174,0,0,0-1.71-15.506H437.321v28.365h55.4a56.078,56.078,0,0,1-5.441,14.977,40.939,40.939,0,0,1-8.62,11.341q-15.747,14.554-40.355,14.543a60.536,60.536,0,0,1-29.93-7.537,55.942,55.942,0,0,1-21.815-21.405q-8.128-13.906-8.115-31.638c0-11.8,2.649-22.4,8.018-31.641a55.364,55.364,0,0,1,21.526-21.454,60.445,60.445,0,0,1,29.808-7.512c9.535,0,17.842,1.565,24.994,4.7A59.659,59.659,0,0,1,482.372,717.4l22.875-22.416a83.414,83.414,0,0,0-29.4-20.563,95.939,95.939,0,0,0-37.828-7.272,93.937,93.937,0,0,0-46.639,11.919,90.206,90.206,0,0,0-33.854,33.036q-12.533,21.019-12.57,47.146,0,26.112,12.57,47.169a90.106,90.106,0,0,0,33.854,32.987m175.7,3.2c10.185,5.827,21.791,8.739,34.721,8.739q19.215,0,34.5-8.739a62.552,62.552,0,0,0,23.765-23.887,72.484,72.484,0,0,0,0-68.117,63.1,63.1,0,0,0-23.765-24.031,68.784,68.784,0,0,0-34.5-8.691c-12.93,0-24.536,2.913-34.721,8.691a62.528,62.528,0,0,0-23.74,24.031,72.3,72.3,0,0,0,0,68.117,61.991,61.991,0,0,0,23.74,23.887m51.985-25.5a35.747,35.747,0,0,1-34.481,0,32.642,32.642,0,0,1-12.665-12.954,38.517,38.517,0,0,1-4.84-19.576,37.913,37.913,0,0,1,4.84-19.431,33.222,33.222,0,0,1,12.665-12.81,35.768,35.768,0,0,1,34.481,0,33,33,0,0,1,12.569,12.81,39.6,39.6,0,0,1,4.671,19.431,40.082,40.082,0,0,1-4.671,19.721,32.828,32.828,0,0,1-12.569,12.809m89.619,25.5c10.161,5.827,21.768,8.739,34.7,8.739,12.858,0,24.3-2.912,34.528-8.739a62.158,62.158,0,0,0,23.742-23.887,72.487,72.487,0,0,0,0-68.117,62.7,62.7,0,0,0-23.742-24.031,68.807,68.807,0,0,0-34.528-8.691c-12.929,0-24.536,2.913-34.7,8.691a62.434,62.434,0,0,0-23.765,24.031,72.494,72.494,0,0,0,0,68.117,61.9,61.9,0,0,0,23.765,23.887m51.961-25.5a35.746,35.746,0,0,1-34.48,0A32.961,32.961,0,0,1,713.5,804.158a39,39,0,0,1-4.816-19.576,38.385,38.385,0,0,1,4.816-19.431,33.556,33.556,0,0,1,12.665-12.81,35.767,35.767,0,0,1,34.48,0,32.831,32.831,0,0,1,12.569,12.81,39.339,39.339,0,0,1,4.695,19.431,39.822,39.822,0,0,1-4.695,19.721,32.661,32.661,0,0,1-12.569,12.809m82.493,76.69q15.783,10.726,39.632,10.763,19.541,0,34-8.042a54.663,54.663,0,0,0,22.417-22.778c5.274-9.824,7.9-21.5,7.9-34.938v-117H916.047v13.268H914.1a38.573,38.573,0,0,0-15.554-12.81,52.712,52.712,0,0,0-21.887-4.383,55.672,55.672,0,0,0-28.966,7.994,58.835,58.835,0,0,0-21.527,22.658c-5.417,9.751-8.163,21.139-8.163,34.094,0,12.977,2.746,24.319,8.163,34.095a58.889,58.889,0,0,0,21.527,22.683,55.685,55.685,0,0,0,28.966,7.993A52.293,52.293,0,0,0,898.542,843,38.8,38.8,0,0,0,914.1,830.188h1.95v9.823q0,17.264-9.006,26.63c-5.995,6.213-14.062,9.343-24.271,9.343a32.682,32.682,0,0,1-18.468-5.442,32.224,32.224,0,0,1-12.015-14.782l-30.339,12.326q5.454,15.026,21.189,25.716m63.3-85.187a31.832,31.832,0,0,1-23.163,9.461,32.211,32.211,0,0,1-23.381-9.318c-6.405-6.284-9.607-14.929-9.607-26.126q0-16.722,9.607-26.076a33.9,33.9,0,0,1,46.64-.145q9.5,9.247,9.511,26.221,0,16.542-9.607,25.982M968.754,847.4h32.289V671.077H968.754Zm78.038-4.7a66.236,66.236,0,0,0,33.734,8.644q39.188,0,58.365-33.515l-26.1-12.762a35.441,35.441,0,0,1-12.689,12.905q-7.982,4.805-19.094,4.793c-8.837,0-16.445-2.577-22.754-7.754q-9.5-7.729-11.966-22.777h94.338a74.7,74.7,0,0,0,.746-10.861,71.5,71.5,0,0,0-7.247-32.24,54.96,54.96,0,0,0-21.333-22.9q-14.05-8.378-33.493-8.354a61.78,61.78,0,0,0-33.011,9.1,64.271,64.271,0,0,0-23.115,24.512,68.5,68.5,0,0,0-8.38,33.348q0,18.963,8.476,34.143a61.827,61.827,0,0,0,23.525,23.717m.987-73.366c2.456-7.7,6.429-13.844,11.968-18.348a30.086,30.086,0,0,1,19.816-6.791,31.965,31.965,0,0,1,15.868,3.829,30.269,30.269,0,0,1,10.57,9.582,25.146,25.146,0,0,1,4.334,11.728Zm160.8,78.061h33.251V782.656h28.823a66.494,66.494,0,0,0,30.531-7.03,53.544,53.544,0,0,0,21.671-19.817,54.373,54.373,0,0,0,7.9-29.087,53.088,53.088,0,0,0-29.569-48.639,66.474,66.474,0,0,0-30.531-7.007h-62.073Zm33.251-96.288v-48.5h29.81q12.316,0,19.335,7.009a23.4,23.4,0,0,1,7.006,17.1,23.868,23.868,0,0,1-7.006,17.265c-4.671,4.767-11.124,7.127-19.335,7.127ZM1345.773,847.4h32.24V671.077h-32.24Zm58.582-7.752q12.822,11.666,32.747,11.678a46.293,46.293,0,0,0,21.309-4.672,43.471,43.471,0,0,0,14.929-12.04h1.951v12.811h31.734V770.087q0-25.608-15-38.909c-9.992-8.862-24.632-13.292-43.822-13.292a70.327,70.327,0,0,0-30.026,6.381,60.358,60.358,0,0,0-22.923,18.227l20.684,16.278a40.519,40.519,0,0,1,13.676-10.765,38.456,38.456,0,0,1,17.1-4.043c8.692,0,15.627,2.166,20.828,6.406a20.778,20.778,0,0,1,7.753,16.756v5.418q-13.8-5.633-33.277-5.658a62.515,62.515,0,0,0-25.572,5.152,42.333,42.333,0,0,0-18.227,14.809,37.663,37.663,0,0,0-6.67,22.126q0,19,12.809,30.677m62.677-22.417q-8.237,8.993-22.272,9.006c-6.743,0-11.944-1.591-15.531-4.816a15.834,15.834,0,0,1-5.394-12.45q0-18.707,25.09-18.708a61.383,61.383,0,0,1,26.366,5.9,30.093,30.093,0,0,1-8.259,21.068m69.8,83.361h34.745l77.582-178.808H1613.21L1581.932,799.9h-2l-32.482-78.112h-36.7L1563.7,841.48Z" transform="translate(160.483 -494.774)" fill="#666"/></g></g></svg>